<svg width="13" height="13" viewBox="0 0 13 13" fill="none" xmlns="http://www.w3.org/2000/svg">
<g id="lucide:instagram" clip-path="url(#clip0_448_16102)">
<g id="Group">
<path id="Vector" d="M9.20703 1.08301H3.79036C2.29459 1.08301 1.08203 2.29557 1.08203 3.79134V9.20801C1.08203 10.7038 2.29459 11.9163 3.79036 11.9163H9.20703C10.7028 11.9163 11.9154 10.7038 11.9154 9.20801V3.79134C11.9154 2.29557 10.7028 1.08301 9.20703 1.08301Z" stroke="#9ACF8C" stroke-linecap="round" stroke-linejoin="round"/>
<path id="Vector_2" d="M9.47787 3.52051H9.48329M8.66537 6.15842C8.73222 6.60922 8.65522 7.06963 8.44532 7.47414C8.23543 7.87866 7.90332 8.20669 7.49625 8.41158C7.08918 8.61647 6.62786 8.68779 6.17792 8.61539C5.72798 8.54299 5.31232 8.33055 4.99007 8.0083C4.66782 7.68605 4.45539 7.2704 4.38299 6.82046C4.31059 6.37052 4.3819 5.9092 4.5868 5.50213C4.79169 5.09505 5.11972 4.76295 5.52424 4.55306C5.92875 4.34316 6.38915 4.26616 6.83995 4.33301C7.29979 4.4012 7.7255 4.61547 8.0542 4.94417C8.38291 5.27288 8.59718 5.69859 8.66537 6.15842Z" stroke="#9ACF8C" stroke-linecap="round" stroke-linejoin="round"/>
</g>
</g>
<defs>
<clipPath id="clip0_448_16102">
<rect width="13" height="13" fill="white"/>
</clipPath>
</defs>
</svg>
