<svg width="20" height="20" viewBox="0 0 20 20" fill="none" xmlns="http://www.w3.org/2000/svg">
<g id="solar:maximize-square-3-linear">
<g id="Group">
<path id="Vector" d="M10.8333 18.3333C14.2125 18.3267 15.9816 18.2442 17.1125 17.1125C18.3333 15.8933 18.3333 13.9283 18.3333 10C18.3333 6.07167 18.3333 4.1075 17.1125 2.88667C15.8925 1.66667 13.9283 1.66667 9.99996 1.66667C6.07163 1.66667 4.10746 1.66667 2.88663 2.88667C1.75579 4.01833 1.67329 5.78667 1.66663 9.16667" stroke="#A7F792" stroke-width="1.25" stroke-linecap="round"/>
<path id="Vector_2" d="M10 10L14.1667 5.83333M14.1667 5.83333H11.0417M14.1667 5.83333V8.95833" stroke="#A7F792" stroke-width="1.25" stroke-linecap="round" stroke-linejoin="round"/>
<path id="Vector_3" d="M1.66663 15C1.66663 13.4283 1.66663 12.6433 2.15496 12.155C2.64329 11.6667 3.42829 11.6667 4.99996 11.6667C6.57163 11.6667 7.35663 11.6667 7.84496 12.155C8.33329 12.6433 8.33329 13.4283 8.33329 15C8.33329 16.5717 8.33329 17.3567 7.84496 17.845C7.35663 18.3333 6.57163 18.3333 4.99996 18.3333C3.42829 18.3333 2.64329 18.3333 2.15496 17.845C1.66663 17.3567 1.66663 16.5717 1.66663 15Z" stroke="#A7F792" stroke-width="1.25"/>
</g>
</g>
</svg>
