<svg width="104" height="104" viewBox="0 0 104 104" fill="none" xmlns="http://www.w3.org/2000/svg">
<g id="Robot">
<path id="Ellipse 105" d="M73.8281 31.0657C72.0007 46.7813 58.7085 57.3802 42.7624 57.3802C26.8164 57.3802 13.8896 46.7813 11.3312 31.0657C11.3312 15.1197 26.8164 2.19286 42.7624 2.19286C58.7085 2.19286 73.8281 15.1197 73.8281 31.0657Z" fill="#F5F5F5"/>
<path id="Ellipse 106" d="M69.4421 34.8326C69.4421 44.2243 55.3841 38.8335 43.6383 38.8335C31.8926 38.8335 16.0822 43.8588 16.0822 34.8326C16.0822 23.392 25.1732 12.4274 43.6383 12.4276C61.9322 12.4278 69.4421 25.441 69.4421 34.8326Z" fill="#333333"/>
<path id="Vector 284" d="M48.2411 28.5064C50.0163 21.9839 59.336 21.3907 60.6674 28.5064" stroke="#9ACF8C" stroke-width="1.47597" stroke-linecap="round"/>
<path id="Vector 285" d="M25.5812 28.5064C27.3564 21.9839 36.6761 21.3907 38.0075 28.5064" stroke="#9ACF8C" stroke-width="1.47597" stroke-linecap="round"/>
<rect id="Rectangle 12420" x="8.04254" y="0.00012207" width="2.19287" height="32.8931" rx="1.09644" fill="#9ACF8C"/>
<rect id="Rectangle 12421" x="8.04254" y="21.197" width="5.1167" height="19.0049" rx="1.47597" fill="#CDCDCD"/>
<circle id="Ellipse 107" cx="9.13855" cy="2.55847" r="2.55835" fill="#F5F5F5"/>
<rect id="Rectangle 12422" x="75.2911" y="0.00012207" width="2.19287" height="32.8931" rx="1.09644" fill="#9ACF8C"/>
<circle id="Ellipse 108" cx="76.384" cy="2.55847" r="2.55835" fill="#F5F5F5"/>
<rect id="Rectangle 12423" x="72.3633" y="21.197" width="5.1167" height="19.0049" rx="1.47597" fill="#CDCDCD"/>
<path id="Ellipse 109" d="M72.3646 89.8536C72.3646 108.319 61.0036 153.502 42.0298 153.502C23.0561 153.502 10.9641 103.998 10.9641 89.8536C10.9641 70.3507 23.0561 59.2082 42.0298 59.2082C61.0036 59.2082 72.3646 70.3507 72.3646 89.8536Z" fill="#F5F5F5"/>
<path id="Ellipse 110" d="M72.3647 88.405C69.8064 106.949 61.3692 128.649 42.3955 128.649C23.4217 128.649 14.2536 107.738 11.6953 88.405C11.6953 69.2294 23.4217 59.2082 42.3955 59.2082C61.3692 59.2082 72.3647 69.2294 72.3647 88.405Z" fill="#F5F5F5"/>
<path id="Ellipse 111" d="M79.9986 61.5902C86.9111 47.5199 96.582 32.6591 98.9372 33.8162C101.292 34.9732 95.4399 51.71 88.5274 65.7803C81.6148 79.8506 78.4082 81.5535 76.0531 80.3964C73.6979 79.2394 73.0861 75.6606 79.9986 61.5902Z" fill="#F5F5F5"/>
<path id="Ellipse 112" d="M9.50221 94.7311C9.50221 110.408 7.37501 128.01 4.75098 128.01C2.12695 128.01 -0.000244141 110.408 -0.000244141 94.7311C-0.000244141 79.0544 2.12695 76.1121 4.75098 76.1121C7.37501 76.1121 9.50221 79.0544 9.50221 94.7311Z" fill="#F5F5F5"/>
<path id="Vector 286" d="M26.1988 80.733C26.4219 81.0741 26.3262 81.5314 25.985 81.7545C25.6439 81.9775 25.1866 81.8818 24.9635 81.5407L26.1988 80.733ZM25.5812 61.401C26.1914 61.8159 26.1916 61.8157 26.1917 61.8155C26.1918 61.8155 26.1919 61.8153 26.1919 61.8152C26.192 61.8152 26.1919 61.8152 26.1918 61.8154C26.1915 61.8158 26.1908 61.8168 26.1898 61.8184C26.1877 61.8215 26.1841 61.827 26.179 61.8347C26.1689 61.8501 26.1529 61.8745 26.1318 61.9078C26.0896 61.9743 26.0266 62.0759 25.9476 62.2103C25.7896 62.4791 25.5679 62.8786 25.3206 63.3907C24.8253 64.4162 24.2305 65.8859 23.8344 67.6569C23.0439 71.191 23.0447 75.909 26.1988 80.733L24.9635 81.5407C21.539 76.3032 21.5399 71.1532 22.394 67.3348C22.8202 65.4295 23.4589 63.8517 23.9915 62.7489C24.2581 62.1968 24.4991 61.7619 24.6751 61.4624C24.7632 61.3125 24.8351 61.1964 24.886 61.1163C24.9114 61.0763 24.9317 61.0452 24.946 61.0234C24.9532 61.0125 24.9589 61.0039 24.9631 60.9976C24.9652 60.9945 24.9669 60.992 24.9682 60.99C24.9688 60.9891 24.9694 60.9882 24.9698 60.9876C24.9701 60.9872 24.9703 60.9868 24.9705 60.9867C24.9707 60.9863 24.9709 60.986 25.5812 61.401Z" fill="black"/>
<path id="Vector 287" d="M57.1256 79.2714C56.9025 79.6125 56.9982 80.0698 57.3394 80.2929C57.6805 80.5159 58.1378 80.4202 58.3609 80.0791L57.1256 79.2714ZM57.7432 59.9394C57.133 60.3543 57.1328 60.3541 57.1327 60.3539C57.1326 60.3539 57.1325 60.3537 57.1325 60.3536C57.1324 60.3536 57.1325 60.3536 57.1326 60.3538C57.1329 60.3542 57.1336 60.3552 57.1346 60.3568C57.1367 60.3599 57.1403 60.3654 57.1454 60.3731C57.1555 60.3885 57.1715 60.413 57.1926 60.4462C57.2348 60.5127 57.2978 60.6143 57.3768 60.7487C57.5348 61.0175 57.7565 61.417 58.0038 61.9291C58.4991 62.9547 59.0939 64.4243 59.49 66.1954C60.2805 69.7294 60.2797 74.4474 57.1256 79.2714L58.3609 80.0791C61.7854 74.8416 61.7845 69.6916 60.9304 65.8732C60.5042 63.9679 59.8655 62.3901 59.3329 61.2873C59.0663 60.7352 58.8253 60.3003 58.6493 60.0008C58.5612 59.8509 58.4893 59.7348 58.4384 59.6547C58.413 59.6147 58.3927 59.5836 58.3784 59.5618C58.3712 59.5509 58.3655 59.5423 58.3613 59.536C58.3592 59.5329 58.3575 59.5304 58.3562 59.5284C58.3556 59.5275 58.355 59.5266 58.3546 59.526C58.3543 59.5256 58.3541 59.5252 58.3539 59.5251C58.3537 59.5247 58.3535 59.5244 57.7432 59.9394Z" fill="black"/>
<path id="Line 68" d="M18.7958 65.5263L28.2982 60.0441" stroke="#1E3565" stroke-width="1.47597"/>
<circle id="Ellipse 113" cx="25.9489" cy="81.5016" r="3.28931" fill="#AFAFAF"/>
<circle id="Ellipse 114" cx="25.9493" cy="81.5028" r="1.82739" fill="#D9D9D9"/>
<line id="Line 69" x1="55.496" y1="59.3568" x2="67.4497" y2="65.497" stroke="#1E3565" stroke-width="2.95194"/>
<path id="Vector 288" d="M43.0653 87.3294C52.3501 72.6497 66.0085 80.4726 55.3659 94.4516" stroke="#AFAFAF" stroke-width="1.47597" stroke-linecap="round"/>
<circle id="Ellipse 115" cx="42.3974" cy="89.1761" r="2.19287" fill="#D9D9D9"/>
<circle id="Ellipse 116" cx="54.0898" cy="95.7565" r="2.19287" fill="#D9D9D9"/>
</g>
</svg>
