<svg width="104" height="84" viewBox="0 0 104 84" fill="none" xmlns="http://www.w3.org/2000/svg">
<g id="58379950_9416264 2" clip-path="url(#clip0_31_6859)">
<path id="path26" d="M50.7735 36.6053C50.7384 36.6053 50.7097 31.817 50.7097 25.9119C50.7097 20.0046 50.7384 15.2173 50.7735 15.2173C50.8087 15.2173 50.8371 20.0046 50.8371 25.9119C50.8371 31.817 50.8087 36.6053 50.7735 36.6053Z" fill="#1F2A31"/>
<path id="path28" d="M57.3864 36.6053C57.3512 36.6053 57.3228 31.817 57.3228 25.9119C57.3228 20.0046 57.3512 15.2173 57.3864 15.2173C57.4216 15.2173 57.4502 20.0046 57.4502 25.9119C57.4502 31.817 57.4216 36.6053 57.3864 36.6053Z" fill="#1F2A31"/>
<path id="path38" d="M55.8776 17.7274H52.2428V16.4691H55.8776V17.7274Z" fill="#D9DAD7"/>
<path id="path40" d="M55.3206 21.2169H52.8138V19.9588H55.3206V21.2169Z" fill="#D9DAD7"/>
<path id="path42" d="M55.3206 25.0321H52.8138V23.7739H55.3206V25.0321Z" fill="#D9DAD7"/>
<path id="path44" d="M61.6654 25.0321H59.1585V23.7739H61.6654V25.0321Z" fill="#D9DAD7"/>
<path id="path46" d="M55.3206 27.5688H52.8138V26.3106H55.3206V27.5688Z" fill="#D9DAD7"/>
<path id="path48" d="M61.6468 27.4501H59.14V26.1918H61.6468V27.4501Z" fill="#D9DAD7"/>
<path id="path50" d="M61.6468 21.2995H59.14V20.0412H61.6468V21.2995Z" fill="#D9DAD7"/>
<path id="path52" d="M61.6468 17.7274H58.7434V16.4691H61.6468V17.7274Z" fill="#D9DAD7"/>
<path id="path62" d="M57.3864 39.2567H63.0814V36.3596H57.3864V39.2567Z" fill="#D9DAD7"/>
<path id="path110" d="M73.5002 72.3502C73.465 72.3502 73.4366 67.6171 73.4366 61.7797C73.4366 55.9404 73.465 51.208 73.5002 51.208C73.5353 51.208 73.5638 55.9404 73.5638 61.7797C73.5638 67.6171 73.5353 72.3502 73.5002 72.3502Z" fill="#D9DAD7"/>
<path id="path112" d="M86.7261 72.5959C86.691 72.5959 86.6623 67.8077 86.6623 61.9026C86.6623 55.9953 86.691 51.208 86.7261 51.208C86.7613 51.208 86.7897 55.9953 86.7897 61.9026C86.7897 67.8077 86.7613 72.5959 86.7261 72.5959Z" fill="#D9DAD7"/>
<path id="path114" d="M93.339 72.5959C93.3038 72.5959 93.2754 67.8077 93.2754 61.9026C93.2754 55.9953 93.3038 51.208 93.339 51.208C93.3742 51.208 93.4029 55.9953 93.4029 61.9026C93.4029 67.8077 93.3742 72.5959 93.339 72.5959Z" fill="#D9DAD7"/>
<path id="path116" d="M70.6575 53.718H72.3711V52.4598H70.6575V53.718Z" fill="#D9DAD7"/>
<path id="path118" d="M70.6575 58.2054H72.3711V56.9472H70.6575V58.2054Z" fill="#D9DAD7"/>
<path id="path120" d="M70.6575 61.0493H72.3711V59.7911H70.6575V61.0493Z" fill="#D9DAD7"/>
<path id="path122" d="M70.6575 63.5384H72.3711V62.2801H70.6575V63.5384Z" fill="#D9DAD7"/>
<path id="path124" d="M91.8302 53.718H88.1954V52.4598H91.8302V53.718Z" fill="#D9DAD7"/>
<path id="path126" d="M91.2732 57.2076H88.7664V55.9496H91.2732V57.2076Z" fill="#D9DAD7"/>
<path id="path128" d="M91.2732 61.0228H88.7664V59.7648H91.2732V61.0228Z" fill="#D9DAD7"/>
<path id="path132" d="M91.2732 63.5595H88.7664V62.3013H91.2732V63.5595Z" fill="#D9DAD7"/>
<path id="path140" d="M75.1583 53.718H84.6656V52.4598H75.1583V53.718Z" fill="#D9DAD7"/>
<path id="path142" d="M75.1583 57.9397H80.8104V56.6814H75.1583V57.9397Z" fill="#D9DAD7"/>
<path id="path144" d="M75.1583 60.9315H84.6656V59.6733H75.1583V60.9315Z" fill="#D9DAD7"/>
<path id="path146" d="M75.1583 63.4408H80.2046V62.1826H75.1583V63.4408Z" fill="#D9DAD7"/>
<path id="path278" d="M78.9439 93.0995L47.4422 92.9605C43.6528 92.9439 40.595 90.1048 40.6118 86.6181L40.9443 13.9615C40.9609 10.4729 44.0481 7.65723 47.8397 7.67265H47.8494L79.3416 7.79889C83.1304 7.81551 86.1877 10.6534 86.1723 14.1391L85.8396 86.8044C85.8295 90.2905 82.7495 93.1089 78.9603 93.0995H78.9439Z" fill="#1F2A31"/>
<path id="path280" d="M79.0766 9.8278L72.9786 9.80154L55.138 9.72324H52.9915L47.6425 9.70157C44.9886 9.68976 42.827 11.6895 42.8142 14.1684V14.1709L42.4885 86.1908C42.4769 88.6697 44.6188 90.6883 47.2724 90.6991H47.2727L78.7138 90.8338C81.3674 90.8422 83.5259 88.8393 83.5349 86.3602V86.358L83.8606 14.3381C83.8733 11.8591 81.7326 9.83984 79.0791 9.8278H79.0766Z" fill="white"/>
<path id="path282" d="M79.36 16.2311C79.36 16.4481 79.1841 16.624 78.967 16.624C78.75 16.624 78.5739 16.4481 78.5739 16.2311C78.5739 16.014 78.75 15.8379 78.967 15.8379H78.9692C79.1855 15.8394 79.36 16.0147 79.36 16.2311Z" fill="#1F2A31"/>
<path id="path284" d="M79.3554 17.6543C79.3542 17.8714 79.1771 18.0463 78.9601 18.0451C78.743 18.0437 78.5681 17.8668 78.5693 17.6498C78.5705 17.4334 78.7461 17.259 78.9622 17.259C79.1798 17.2602 79.3554 17.4368 79.3554 17.6543Z" fill="#1F2A31"/>
<path id="path286" d="M79.3508 19.0615C79.352 19.2797 79.1762 19.4578 78.9576 19.459C78.7394 19.4604 78.5614 19.2843 78.5599 19.0661C78.5587 18.8478 78.7348 18.6695 78.9531 18.6683H78.9576C79.1742 18.6695 79.3494 18.8449 79.3508 19.0615Z" fill="#1F2A31"/>
<path id="path288" d="M71.4245 17.8924H53.7754C53.4259 17.8924 53.1423 17.6088 53.1423 17.259C53.1423 16.9092 53.4259 16.6257 53.7754 16.6257H71.4245C71.7743 16.6257 72.0578 16.9092 72.0578 17.259C72.0578 17.6088 71.7743 17.8924 71.4245 17.8924Z" fill="#D9DAD7"/>
<path id="path290" d="M71.9111 80.9333H55.4866C53.5247 80.9333 51.9342 79.3427 51.9342 77.381V77.2676C51.9342 75.3057 53.5247 73.7152 55.4866 73.7152H71.9111C73.8731 73.7152 75.4633 75.3057 75.4633 77.2676V77.381C75.4633 79.3427 73.8731 80.9333 71.9111 80.9333Z" fill="#1E3565"/>
<path id="path292" d="M62.1899 76.9988C62.1899 76.808 62.0694 76.6964 61.8287 76.6964H61.5059V77.2982H61.8287C62.0694 77.2982 62.1899 77.1866 62.1899 76.9988ZM62.777 76.9988C62.777 77.4654 62.4245 77.7562 61.8639 77.7562H61.5059V78.2932H60.9246V76.2385H61.8639C62.4245 76.2385 62.777 76.529 62.777 76.9988Z" fill="white"/>
<path id="path294" d="M64.1636 77.4654L63.8993 76.808L63.6353 77.4654H64.1636ZM64.3339 77.894H63.4649L63.3035 78.2932H62.7104L63.6174 76.2385H64.1901L65.1 78.2932H64.4953L64.3339 77.894Z" fill="white"/>
<path id="path296" d="M66.237 77.5563V78.2932H65.656V77.5478L64.8721 76.2385H65.4857L65.973 77.0544L66.4601 76.2385H67.0238L66.237 77.5563Z" fill="white"/>
<path id="path298" d="M77.5182 30.7999H47.1089C46.9039 30.7999 46.7376 30.6337 46.7376 30.4287V30.4169C46.7376 30.2118 46.9039 30.0456 47.1089 30.0456H77.5182C77.7233 30.0456 77.8895 30.2118 77.8895 30.4169V30.4287C77.8895 30.6337 77.7233 30.7999 77.5182 30.7999Z" fill="#1F2A31"/>
<path id="path300" d="M85.9276 67.6352L85.9357 65.8465C85.961 65.865 85.9856 65.8834 86.0099 65.9019V67.6352H85.9276Z" fill="#9C9F9F"/>
<path id="path302" d="M83.6196 67.6369L83.6341 64.4372C84.5009 64.952 85.3402 65.4109 85.9357 65.8465L85.9275 67.6352L83.6196 67.6369Z" fill="#161C20"/>
<path id="path304" d="M56.8082 67.674C51.2618 66.5294 51.0857 55.3482 51.0857 55.3482C51.0857 55.3482 51.0857 42.6708 51.0857 37.657C51.0857 33.8245 48.7518 31.6238 47.6526 30.7999H75.1207C76.22 31.6238 78.5539 33.8245 78.5539 37.657V52.7216C78.5539 55.5487 79.0094 58.3644 79.9757 61.0211C80.4958 62.4516 82.108 63.5309 83.6341 64.4372L83.6197 67.6369L83.3915 67.6371L56.8082 67.674Z" fill="#A5A7A6"/>
<path id="path306" d="M75.1207 30.7999H47.6526C47.3139 30.546 47.0923 30.4226 47.0923 30.4226H74.5606C74.5606 30.4226 74.782 30.546 75.1207 30.7999Z" fill="#161C20"/>
<path id="path308" d="M81.1193 59.6981C80.153 57.0411 79.6975 54.2257 79.6975 51.3986V36.334C79.6975 31.3205 74.9572 30.4227 74.9572 30.4227H47.489C47.489 30.4227 52.2293 31.3205 52.2293 36.334C52.2293 41.3475 52.2293 54.0252 52.2293 54.0252C52.2293 54.0252 52.4054 65.2062 57.9518 66.3507L86.7011 66.229C83.9278 65.6569 82.1769 62.6058 81.1193 59.6981Z" fill="white"/>
<path id="path310" d="M81.1193 59.6981C81.1193 59.6981 81.1952 59.8836 81.3361 60.2473C81.4872 60.6068 81.7016 61.1469 82.0461 61.8238C82.3896 62.4993 82.8577 63.3218 83.5681 64.1717C83.929 64.5899 84.3515 65.0149 84.8695 65.3835C85.3855 65.7521 86.0059 66.0551 86.7074 66.1985L87.0027 66.2589L86.7011 66.2604C80.1612 66.2939 70.1096 66.3454 57.9521 66.4076H57.946L57.9403 66.4064C56.7952 66.1667 55.7697 65.4425 55.0436 64.4912C54.3059 63.5422 53.7861 62.4239 53.3898 61.2589C52.9911 60.0917 52.7184 58.8667 52.5148 57.6164C52.3216 56.3644 52.1819 55.0854 52.1674 53.7826C52.1667 48.5925 52.1662 43.1507 52.1655 37.5525C52.1655 37.1519 52.1655 36.752 52.1655 36.3528L52.1313 35.7609L52.1137 35.4655C52.0997 35.3682 52.0785 35.2719 52.0612 35.1753C51.9528 34.3947 51.6507 33.652 51.2245 33.0045C50.7964 32.3552 50.2243 31.8105 49.5786 31.3897C48.9345 30.9681 48.2151 30.6546 47.4772 30.4848L46.9325 30.3595H47.489C57.5257 30.3632 66.8536 30.3663 74.9572 30.3689H74.9629L74.9673 30.3699C75.5609 30.5022 76.1133 30.732 76.6336 31.0085C77.1518 31.2873 77.6334 31.6279 78.0403 32.0372C78.8854 32.83 79.3971 33.8956 79.605 34.9664C79.8134 36.0481 79.7264 37.1172 79.744 38.1432C79.743 39.1729 79.742 40.1724 79.7413 41.1408C79.7363 45.0136 79.7322 48.3846 79.7286 51.1587C79.7042 53.9337 80.1087 56.0907 80.4679 57.5239C80.6486 58.2423 80.8199 58.7838 80.9367 59.1478C80.9972 59.3276 81.0432 59.4644 81.075 59.5584C81.1056 59.6506 81.1193 59.6981 81.1193 59.6981C81.1193 59.6981 81.0478 59.5143 80.9208 59.1531C80.7987 58.7906 80.6223 58.25 80.4363 57.5318C80.0666 56.0997 79.6512 53.9392 79.6664 51.1587C79.663 48.3846 79.6587 45.0136 79.6539 41.1408C79.6529 40.1724 79.652 39.1729 79.651 38.1432C79.6322 37.116 79.7155 36.0452 79.5089 34.9857C79.3022 33.9317 78.7996 32.8883 77.9683 32.1109C77.5686 31.7093 77.0945 31.375 76.5835 31.1013C76.073 30.8298 75.5216 30.6026 74.9473 30.4754L74.9572 30.4764C66.8536 30.4793 57.5257 30.4824 47.489 30.4858L47.5008 30.3607C48.265 30.5364 48.9882 30.8534 49.6478 31.2834C50.3062 31.7122 50.8918 32.2692 51.3305 32.9341C51.7673 33.5971 52.0761 34.3586 52.1869 35.1541C52.2045 35.2528 52.226 35.3511 52.2402 35.4504L52.2582 35.7508L52.2929 36.3528C52.2929 36.752 52.2929 37.1519 52.2929 37.5525C52.2924 43.1502 52.2917 48.5918 52.2912 53.7817C52.305 55.0739 52.4435 56.3514 52.6353 57.5974C52.8371 58.8421 53.1079 60.0614 53.503 61.2206C53.8954 62.3774 54.4105 63.4849 55.1354 64.4189C55.8502 65.356 56.8487 66.0597 57.9634 66.2951L57.9516 66.2939C70.1092 66.2534 80.1607 66.2197 86.7009 66.198L86.6946 66.2596C85.9839 66.1122 85.3569 65.8026 84.8375 65.4288C84.3159 65.0546 83.8924 64.6249 83.5315 64.2028C82.8208 63.3452 82.3564 62.5179 82.0167 61.8388C81.6763 61.1577 81.4667 60.6152 81.3205 60.2534C81.1846 59.8874 81.1193 59.6981 81.1193 59.6981Z" fill="#1F2A31"/>
<path id="path312" d="M87.6517 66.2264C89.5797 64.8195 90.8324 62.5266 90.975 60.144L59.9152 60.0197C60.0723 61.4608 59.908 62.9359 59.4375 64.3071C59.1681 65.0922 58.7714 65.8773 58.0894 66.3507L87.6517 66.2264Z" fill="#D9DAD7"/>
<path id="path314" d="M87.6517 66.2264C87.6517 66.2264 87.6033 66.2302 87.5072 66.2324C87.407 66.2341 87.2644 66.2365 87.0781 66.2396C86.6956 66.2435 86.1372 66.2493 85.4156 66.2567C83.9615 66.2673 81.8531 66.2823 79.2176 66.3013C73.9343 66.3293 66.5421 66.3683 58.0896 66.4131L57.8897 66.4141L58.054 66.2996C58.496 65.9908 58.828 65.536 59.0696 65.0392C59.3127 64.541 59.484 64.0007 59.6223 63.4516C59.8928 62.3507 59.9769 61.1849 59.8519 60.0267L59.8442 59.9556L59.9155 59.9561C60.2012 59.957 60.5103 59.9583 60.8201 59.9595C73.2547 60.0202 84.2656 60.0739 90.975 60.1066H91.0148L91.0121 60.1462C90.937 61.2835 90.6284 62.2719 90.2545 63.0727C89.8782 63.8759 89.4335 64.495 89.0369 64.9604C88.6375 65.4256 88.2798 65.7347 88.0372 65.9383C87.7852 66.1341 87.6517 66.2264 87.6517 66.2264C87.6517 66.2264 87.6831 66.198 87.7457 66.1471C87.811 66.0946 87.9032 66.0199 88.0239 65.9224C88.262 65.7145 88.6137 65.4018 89.0066 64.9347C89.3961 64.4673 89.8334 63.8482 90.2017 63.0481C90.5679 62.2505 90.8683 61.2685 90.9377 60.1418L90.9748 60.1813C84.2653 60.1604 73.2542 60.1259 60.8196 60.0871C60.5098 60.0857 60.2007 60.0845 59.915 60.0833L59.9786 60.0127C60.1053 61.1864 60.0195 62.3668 59.7451 63.4817C59.6047 64.038 59.432 64.5837 59.1826 65.0949C58.9347 65.6032 58.5905 66.0773 58.125 66.402L58.0892 66.2883C66.5344 66.262 73.9206 66.2392 79.1993 66.2228C81.8372 66.2194 83.9476 66.2168 85.4029 66.2151C86.127 66.2165 86.6874 66.2175 87.0712 66.2182C87.2588 66.2197 87.4026 66.2209 87.5036 66.2218C87.6009 66.223 87.6517 66.2264 87.6517 66.2264Z" fill="#1F2A31"/>
<path id="path316" d="M76.1185 36.234C76.1185 36.2692 71.5264 36.2976 65.8629 36.2976C60.1975 36.2976 55.6063 36.2692 55.6063 36.234C55.6063 36.1988 60.1975 36.1702 65.8629 36.1702C71.5264 36.1702 76.1185 36.1988 76.1185 36.234Z" fill="#1F2A31"/>
<path id="path318" d="M76.1185 40.6053C76.1185 40.6405 71.5264 40.6689 65.8629 40.6689C60.1975 40.6689 55.6063 40.6405 55.6063 40.6053C55.6063 40.5701 60.1975 40.5414 65.8629 40.5414C71.5264 40.5414 76.1185 40.5701 76.1185 40.6053Z" fill="#1F2A31"/>
<path id="path320" d="M77.3395 52.64C77.3395 52.6754 72.4739 52.7039 66.4734 52.7039C60.4707 52.7039 55.6063 52.6754 55.6063 52.64C55.6063 52.6048 60.4707 52.5764 66.4734 52.5764C72.4739 52.5764 77.3395 52.6048 77.3395 52.64Z" fill="#1F2A31"/>
<path id="path322" d="M62.8525 34.3472C62.8525 34.2061 62.747 34.1386 62.5473 34.1386H62.06V34.5556H62.5473C62.747 34.5556 62.8525 34.4879 62.8525 34.3472ZM62.06 33.3403V33.7365H62.4591C62.6531 33.7365 62.7528 33.6691 62.7528 33.5368C62.7528 33.4077 62.6531 33.3403 62.4591 33.3403H62.06ZM63.4396 34.4116C63.4396 34.7669 63.1462 34.9753 62.5943 34.9753H61.4847V32.9204H62.5355C63.0756 32.9204 63.3397 33.1405 63.3397 33.4578C63.3397 33.6542 63.2402 33.8129 63.0641 33.9037C63.2958 33.9859 63.4396 34.1622 63.4396 34.4116Z" fill="#1F2A31"/>
<path id="path324" d="M63.7432 32.9204H64.3243V34.9753H63.7432V32.9204Z" fill="#1F2A31"/>
<path id="path326" d="M64.7391 32.9204H65.3201V34.5144H66.3004V34.9753H64.7391V32.9204Z" fill="#1F2A31"/>
<path id="path328" d="M66.5305 32.9204H67.1116V34.5144H68.092V34.9753H66.5305V32.9204Z" fill="#1F2A31"/>
<path id="path330" d="M66.2975 39.3646H55.8788V37.8086H66.2975V39.3646Z" fill="#D9DAD7"/>
<path id="path332" d="M76.6427 39.3646H70.4608V37.8086H76.6427V39.3646Z" fill="#D9DAD7"/>
<path id="path334" d="M65.8625 44.0791H55.8788V42.5231H65.8625V44.0791Z" fill="#D9DAD7"/>
<path id="path336" d="M60.0518 47.4118H55.8788V45.8558H60.0518V47.4118Z" fill="#D9DAD7"/>
<path id="path338" d="M62.6442 50.4901H55.8788V48.9341H62.6442V50.4901Z" fill="#D9DAD7"/>
<path id="path340" d="M77.7769 59.0134H56.6692V57.4574H77.7769V59.0134Z" fill="#D9DAD7"/>
<path id="path342" d="M76.8076 44.0791H73.7772V42.5231H76.8076V44.0791Z" fill="#1E3565"/>
<path id="path344" d="M76.8076 47.0584H73.7772V45.5024H76.8076V47.0584Z" fill="#1E3565"/>
<path id="path346" d="M76.8076 50.3692H73.7772V48.8132H76.8076V50.3692Z" fill="#1E3565"/>
<path id="path348" d="M76.7567 55.5872H72.5565V54.0312H76.7567V55.5872Z" fill="#1E3565"/>
<path id="path350" d="M86.0735 23.1552L83.8208 23.1215L83.8297 21.1506H86.0962L86.0735 23.1552ZM66.582 9.77359L64.676 9.76515V7.76202H66.582V9.77359Z" fill="#161C20"/>
<path id="path352" d="M83.8208 23.1215L66.5914 22.8644C65.5336 22.8644 64.676 22.0068 64.676 20.949V17.8924H66.582V20.1559C66.582 20.7052 67.0275 21.1506 67.577 21.1506H83.8297L83.8208 23.1215ZM66.582 16.6257H64.676V9.76516L66.582 9.77359V16.6257Z" fill="#A5A7A6"/>
<path id="path354" d="M64.676 17.8924H66.582V16.6256H64.676V17.8924Z" fill="#8E9090"/>
<path id="path356" d="M67.577 -1.71661e-05H98.9259C99.4752 -1.71661e-05 99.9206 0.445419 99.9206 0.994686V20.1559C99.9206 20.7052 99.4752 21.1506 98.9259 21.1506H67.577C67.0275 21.1506 66.5821 20.7052 66.5821 20.1559V0.994932C66.5821 0.445425 67.0275 -1.71661e-05 67.577 -1.71661e-05Z" fill="#1E3565"/>
<path id="path358" d="M71.709 4.79381C71.709 4.66179 71.6071 4.59939 71.4197 4.59939H70.9964V4.98581H71.4197C71.6071 4.98581 71.709 4.92799 71.709 4.79381ZM70.9964 3.96557V4.3356H71.3573C71.5331 4.3356 71.6302 4.27321 71.6302 4.15059C71.6302 4.02797 71.5331 3.96557 71.3573 3.96557H70.9964ZM72.0723 4.83067C72.0723 5.10145 71.8569 5.25876 71.4452 5.25876H70.6377V3.69238H71.4014C71.7921 3.69238 71.9935 3.85668 71.9935 4.09976C71.9964 4.24526 71.9155 4.37921 71.7854 4.44425C71.9598 4.49002 72.079 4.65047 72.0723 4.83067Z" fill="white"/>
<path id="path360" d="M73.2636 4.64782L73.0138 4.04868L72.7664 4.64782H73.2636ZM73.3771 4.92341H72.6505L72.5117 5.25876H72.1393L72.8333 3.69238H73.192L73.8861 5.25876H73.5067L73.3771 4.92341Z" fill="white"/>
<path id="path362" d="M75.4939 3.69238V5.25876H75.1954L74.4158 4.3079V5.25876H74.0571V3.69238H74.358L75.1354 4.64324V3.69238H75.4939Z" fill="white"/>
<path id="path364" d="M76.4332 4.64324L76.2226 4.87475V5.27032H75.8733V3.70395H76.2344V4.4351L76.9285 3.70395H77.331L76.6832 4.39824L77.3773 5.26574H76.9538L76.4332 4.64324Z" fill="white"/>
<path id="path366" d="M71.7784 11.3387H71.4915V11.7158H71.3433V11.3387H70.5336V11.2323L71.2949 10.2792H71.4592L70.7256 11.2046H71.3481V10.8738H71.4915V11.2046H71.7784V11.3387Z" fill="white"/>
<path id="path368" d="M72.8333 11.304C72.8333 11.5356 72.6599 11.7297 72.3127 11.7297C72.1229 11.7362 71.9374 11.67 71.7945 11.5447L71.8687 11.4267C71.9889 11.5387 72.1487 11.5987 72.3127 11.5931C72.5442 11.5931 72.683 11.4823 72.683 11.304C72.683 11.126 72.5604 11.0195 72.2944 11.0195H72.1925V10.9109L72.5905 10.411H71.8548V10.2792H72.7801V10.3857L72.3754 10.8969C72.6806 10.9246 72.8333 11.0749 72.8333 11.304Z" fill="white"/>
<path id="path370" d="M73.9947 11.2949C73.9947 11.5377 73.8259 11.7297 73.4741 11.7297C73.285 11.736 73.1005 11.6697 72.9583 11.5447L73.0323 11.4267C73.1508 11.5387 73.3091 11.5987 73.472 11.5931C73.7172 11.5931 73.8468 11.4753 73.8468 11.2995C73.8468 11.1236 73.7309 11.001 73.3655 11.001H73.06L73.1342 10.2792H73.9208V10.411H73.2636L73.2127 10.8738H73.3978C73.8304 10.8692 73.9947 11.0405 73.9947 11.2949Z" fill="white"/>
<path id="path372" d="M75.1169 11.2879C75.1169 11.0981 74.9757 10.9779 74.756 10.9779C74.5732 10.9571 74.4081 11.0887 74.3874 11.2715L74.3857 11.2903C74.3857 11.4498 74.5177 11.6001 74.7652 11.6001C74.9376 11.6208 75.0942 11.4973 75.1147 11.3248L75.1169 11.2925V11.2879ZM75.2626 11.2879C75.2597 11.5358 75.0566 11.7345 74.8088 11.7317L74.7721 11.7297C74.3903 11.7297 74.1822 11.4638 74.1822 11.0104C74.1822 10.5221 74.4481 10.2677 74.8391 10.2677C74.9576 10.2626 75.0752 10.2898 75.1793 10.3462L75.1193 10.4642C75.0352 10.4153 74.9386 10.3922 74.8415 10.3973C74.5315 10.3973 74.3325 10.596 74.3325 10.987C74.3325 11.0195 74.3325 11.0588 74.3325 11.1029C74.418 10.9415 74.59 10.8456 74.7721 10.8576C75.0104 10.8268 75.2284 10.9952 75.259 11.2335L75.2626 11.2879Z" fill="white"/>
<path id="path374" d="M78.365 11.7158L78.0226 11.2648L77.6779 11.7158H77.5136L77.9417 11.1631L77.5346 10.6377H77.6989L78.0226 11.0588L78.3464 10.6377H78.5086L78.1014 11.1561L78.5317 11.709L78.365 11.7158Z" fill="white"/>
<path id="path376" d="M79.4616 11.7158L79.1123 11.2648L78.7676 11.7158H78.6035L79.0314 11.1631L78.6242 10.6377H78.7885L79.1123 11.0588L79.4363 10.6377H79.5958L79.1981 11.1561L79.6283 11.709L79.4616 11.7158Z" fill="white"/>
<path id="path378" d="M80.5584 11.7158L80.2159 11.2648L79.8711 11.7158H79.7068L80.1328 11.1631L79.7254 10.6377H79.8897L80.2159 11.0588L80.5399 10.6377H80.6994L80.2922 11.1561L80.7249 11.709L80.5584 11.7158Z" fill="white"/>
<path id="path380" d="M81.6572 11.7158L81.3149 11.2648L80.9632 11.7158H80.7989L81.2269 11.1631L80.8198 10.6377H80.9841L81.3079 11.0588L81.6319 10.6377H81.7938L81.3888 11.1561L81.8193 11.709L81.6572 11.7158Z" fill="white"/>
<path id="path382" d="M85.4378 11.7158L85.0952 11.2648L84.7505 11.7158H84.5862L85.0121 11.1561L84.6071 10.631H84.7714L85.0952 11.0518L85.4192 10.631H85.5903L85.1716 11.1561L85.6043 11.709L85.4378 11.7158Z" fill="white"/>
<path id="path384" d="M86.532 11.7158L86.1896 11.2648L85.8449 11.7158H85.6806L86.1087 11.1631L85.7013 10.6377H85.8656L86.1896 11.0588L86.5134 10.6377H86.6753L86.2682 11.1561L86.6987 11.709L86.532 11.7158Z" fill="white"/>
<path id="path386" d="M87.6286 11.7158L87.2863 11.2648L86.9415 11.7158H86.7772L87.2099 11.1561L86.8028 10.631H86.9671L87.2908 11.0518L87.6149 10.631H87.7743L87.3648 11.1561L87.7953 11.709L87.6286 11.7158Z" fill="white"/>
<path id="path388" d="M88.7252 11.7158L88.3829 11.2648L88.0381 11.7158H87.8738L88.2995 11.1631L87.904 10.6377H88.0682L88.3944 11.0588L88.7182 10.6377H88.8779L88.4592 11.1561L88.8919 11.709L88.7252 11.7158Z" fill="white"/>
<path id="path390" d="M92.1239 10.2792V11.7158H91.9757V10.411H91.6358V10.2792H92.1239Z" fill="white"/>
<path id="path392" d="M93.4149 11.304C93.4149 11.5356 93.2412 11.7297 92.8943 11.7297C92.7042 11.7362 92.519 11.67 92.3761 11.5447L92.4501 11.4267C92.5701 11.5392 92.73 11.5992 92.8943 11.5931C93.1256 11.5931 93.2646 11.4823 93.2646 11.304C93.2646 11.126 93.142 11.0195 92.8758 11.0195H92.7741V10.9109L93.1718 10.411H92.4361V10.2792H93.3617V10.3857L92.9567 10.8969C93.2622 10.9246 93.4149 11.0749 93.4149 11.304Z" fill="white"/>
<path id="path394" d="M94.8447 11.3387H94.5554V11.7158H94.4096V11.3387H93.5975V11.2323L94.3588 10.2792H94.5231L93.7898 11.2046H94.412V10.8738H94.5554V11.2046H94.8447V11.3387Z" fill="white"/>
<path id="path396" d="M95.9528 11.5864V11.7158H94.9442V11.6187L95.5409 11.0335C95.703 10.8738 95.7353 10.7767 95.7353 10.6794C95.7353 10.5129 95.6173 10.411 95.3976 10.411C95.2496 10.4011 95.1053 10.4602 95.0066 10.5707L94.9001 10.4804C95.0309 10.3397 95.2174 10.2643 95.4091 10.2747C95.7006 10.2747 95.8856 10.4226 95.8856 10.6632C95.8801 10.8401 95.7951 11.0048 95.6544 11.1121L95.1663 11.5931L95.9528 11.5864Z" fill="white"/>
<path id="path398" d="M69.7957 14.6982C69.794 14.5038 69.9501 14.3452 70.1443 14.3436L70.1682 14.344C70.2746 14.3402 70.3775 14.3843 70.4481 14.4645L70.3462 14.5594C70.3045 14.5076 70.2414 14.4777 70.1752 14.4782C70.0537 14.478 69.955 14.576 69.9547 14.6974C69.9545 14.8189 70.0525 14.9176 70.174 14.9179H70.1752C70.2414 14.9186 70.3045 14.8887 70.3462 14.8369L70.4481 14.9294C70.3785 15.0123 70.2739 15.0578 70.1658 15.0521C69.9718 15.0622 69.8063 14.9133 69.7962 14.7194L69.7957 14.6982Z" fill="white"/>
<path id="path400" d="M70.9456 14.7746L70.8367 14.5108L70.7281 14.7746H70.9456ZM70.994 14.8948H70.6772L70.6146 15.0405H70.4527L70.7582 14.3465H70.9155L71.2207 15.0405H71.0567L70.994 14.8948Z" fill="white"/>
<path id="path402" d="M71.5818 14.4852H71.4522V14.7165H71.5818C71.6789 14.7165 71.7276 14.6727 71.7276 14.5963C71.7276 14.5199 71.6789 14.4852 71.5818 14.4852ZM71.7322 15.0405L71.598 14.8507H71.4522V15.0405H71.2949V14.3465H71.591C71.7738 14.3465 71.8895 14.4414 71.8895 14.5939C71.8912 14.6886 71.8353 14.7746 71.7483 14.8114L71.901 15.0314L71.7322 15.0405Z" fill="white"/>
<path id="path404" d="M71.9612 14.9733L72.0142 14.8531C72.0819 14.9008 72.1629 14.9258 72.2457 14.9249C72.3407 14.9249 72.3775 14.8948 72.3775 14.8531C72.3775 14.7235 71.9796 14.8114 71.9796 14.557C71.9796 14.4414 72.0745 14.344 72.2689 14.344C72.3498 14.3436 72.4296 14.3643 72.5001 14.4043L72.4517 14.5245C72.3937 14.4915 72.3286 14.4734 72.2619 14.4712C72.167 14.4712 72.1301 14.5059 72.1301 14.55C72.1301 14.675 72.5303 14.5893 72.5303 14.8391C72.5303 14.955 72.4332 15.0521 72.2388 15.0521C72.1405 15.054 72.0439 15.0265 71.9612 14.9733Z" fill="white"/>
<path id="path406" d="M73.5599 14.3556V15.0499H73.4002V14.7697H73.0879V15.0499H72.9306V14.3556H73.0879V14.6264H73.4002V14.3556H73.5599Z" fill="white"/>
<path id="path408" d="M74.2585 14.6982C74.2558 14.5792 74.1575 14.485 74.0388 14.4876C73.92 14.49 73.8258 14.5886 73.8282 14.7073C73.8309 14.8244 73.9263 14.9179 74.0434 14.9179C74.1595 14.9179 74.2539 14.8239 74.2541 14.7076L74.2539 14.6982H74.2585ZM73.6685 14.6982C73.6569 14.4915 73.8152 14.3147 74.0219 14.3031C74.2286 14.2915 74.4054 14.4498 74.417 14.6565C74.4286 14.8632 74.2703 15.04 74.0636 15.0516L74.0434 15.0521C73.8482 15.0636 73.6805 14.9148 73.6692 14.7196L73.6685 14.6982Z" fill="white"/>
<path id="path410" d="M74.5385 14.3556H74.6982V14.9109H75.0405V15.0405H74.5385V14.3556Z" fill="white"/>
<path id="path412" d="M75.4361 14.9109C75.5536 14.9112 75.6493 14.816 75.6495 14.6984C75.6497 14.5809 75.5546 14.4855 75.437 14.4852H75.4361H75.2903V14.9109H75.4361ZM75.1308 14.3556H75.443C75.6348 14.3556 75.7902 14.511 75.7902 14.7028C75.7902 14.8945 75.6348 15.0499 75.443 15.0499H75.1308V14.3556Z" fill="white"/>
<path id="path414" d="M76.4727 14.9133V15.0405H75.9427V14.3465H76.4587V14.4737H76.1048V14.6264H76.4216V14.7512H76.1048V14.9088L76.4727 14.9133Z" fill="white"/>
<path id="path416" d="M76.8798 14.4852H76.7502V14.7165H76.8798C76.9769 14.7165 77.0256 14.6727 77.0256 14.5963C77.0256 14.5199 76.9839 14.4852 76.8868 14.4852H76.8798ZM77.0301 15.0405L76.896 14.8507H76.7502V15.0405H76.5929V14.3465H76.889C77.0718 14.3465 77.1875 14.4414 77.1875 14.5939C77.1894 14.6886 77.1335 14.7746 77.0463 14.8114L77.199 15.0314L77.0301 15.0405Z" fill="white"/>
<path id="path418" d="M70.0063 16.7457H79.4387C79.6418 16.7457 79.8063 16.9104 79.8063 17.1135V17.2569C79.8063 17.4602 79.6418 17.6247 79.4387 17.6247H70.0063C69.8029 17.6247 69.6384 17.4602 69.6384 17.2569V17.1135C69.6384 16.9104 69.8029 16.7457 70.0063 16.7457Z" fill="white"/>
<path id="path420" d="M91.3327 16.7457H96.2467C96.4498 16.7457 96.6146 16.9102 96.6146 17.1135V17.2569C96.6146 17.4602 96.4498 17.6247 96.2467 17.6247H91.3327C91.1294 17.6247 90.9649 17.4602 90.9649 17.2569V17.1135C90.9649 16.9102 91.1294 16.7457 91.3327 16.7457Z" fill="white"/>
<path id="path422" d="M99.923 7.30862C99.9223 7.30838 99.9213 7.30814 99.9206 7.3079V1.03374C99.922 1.05686 99.923 1.07999 99.923 1.1036V7.30862ZM83.4173 3.33786e-06H98.817C98.817 3.33786e-06 98.817 3.33786e-06 98.8172 3.33786e-06H83.4173Z" fill="white"/>
<path id="path424" d="M71.3467 8.04413C69.6363 8.04413 67.935 7.63242 66.5821 6.68855V1.10361C66.5833 0.493639 67.0781 2.00272e-05 67.6881 2.00272e-05H83.4173H98.8173C99.4034 2.00272e-05 99.8833 0.456542 99.9206 1.03375V7.30792C99.062 7.05183 98.2294 6.71577 97.4335 6.30454C95.0044 5.06677 92.7161 3.39849 90.0302 2.93595C89.5067 2.84609 88.982 2.8049 88.4571 2.8049C86.1304 2.8049 83.8083 3.61434 81.6618 4.58086C79.0314 5.76539 76.4727 7.21131 73.6478 7.80129C72.8998 7.95933 72.1224 8.04413 71.3467 8.04413ZM75.8733 3.70396V5.27034H76.2227V4.87476L76.4332 4.64326L76.9538 5.26575H77.3773L76.6833 4.39825L77.3311 3.70396H76.9285L76.2345 4.43511V3.70396H75.8733ZM75.4939 5.25877V3.6924H75.1354V4.64326L74.358 3.6924H74.0571V5.25877H74.4159V4.30791L75.1954 5.25877H75.4939ZM73.8861 5.25877L73.192 3.6924H72.8333L72.1393 5.25877H72.5117L72.6505 4.92343H73.3771L73.5067 5.25877H73.8861ZM70.6377 3.6924V5.25877H71.4452C71.8569 5.25877 72.0723 5.10146 72.0723 4.83068C72.0791 4.65048 71.9598 4.49004 71.7854 4.44427C71.9155 4.37922 71.9964 4.24528 71.9935 4.09977C71.9935 3.85669 71.7921 3.6924 71.4014 3.6924H70.6377ZM71.4197 4.98582H70.9964V4.59941H71.4197C71.6071 4.59941 71.709 4.6618 71.709 4.79382C71.709 4.92801 71.6071 4.98582 71.4197 4.98582ZM73.2636 4.64783H72.7664L73.0138 4.04869L73.2636 4.64783ZM71.3573 4.33562H70.9964V3.96558H71.3573C71.5332 3.96558 71.6303 4.02798 71.6303 4.1506C71.6303 4.27322 71.5332 4.33562 71.3573 4.33562Z" fill="#9ACF8C"/>
<path id="path426" d="M71.4452 5.25876H70.6377V3.69238H71.4014C71.7921 3.69238 71.9935 3.85668 71.9935 4.09976C71.9964 4.24526 71.9155 4.37921 71.7854 4.44425C71.9598 4.49002 72.079 4.65047 72.0723 4.83067C72.0723 5.10145 71.8569 5.25876 71.4452 5.25876ZM70.9964 4.59939V4.98581H71.4197C71.6071 4.98581 71.709 4.92799 71.709 4.79381C71.709 4.66179 71.6071 4.59939 71.4197 4.59939H70.9964ZM70.9964 3.96557V4.3356H71.3573C71.5331 4.3356 71.6302 4.27321 71.6302 4.15059C71.6302 4.02797 71.5331 3.96557 71.3573 3.96557H70.9964Z" fill="white"/>
<path id="path428" d="M73.8861 5.25876H73.5067L73.3771 4.92341H72.6505L72.5117 5.25876H72.1393L72.8333 3.69238H73.192L73.8861 5.25876ZM73.0138 4.04868L72.7664 4.64782H73.2636L73.0138 4.04868Z" fill="white"/>
<path id="path430" d="M75.4939 5.25876H75.1954L74.4158 4.3079V5.25876H74.0571V3.69238H74.358L75.1354 4.64324V3.69238H75.4939V5.25876Z" fill="white"/>
<path id="path432" d="M76.2226 5.27032H75.8733V3.70395H76.2344V4.4351L76.9285 3.70395H77.331L76.6832 4.39824L77.3773 5.26574H76.9538L76.4332 4.64324L76.2226 4.87475V5.27032Z" fill="white"/>
<path id="path434" d="M92.6004 2.93139H94.2292C94.6317 2.93139 94.9579 3.25757 94.9579 3.66013V5.2889C94.9579 5.69145 94.6317 6.01764 94.2292 6.01764H92.6004C92.1981 6.01764 91.8717 5.69145 91.8717 5.2889V3.66013C91.8717 3.25757 92.1981 2.93139 92.6004 2.93139Z" fill="white"/>
<path id="path446" d="M43.8925 81.8596H16.3314C15.1424 81.8596 14.1786 80.8956 14.1786 79.7068V77.2115C14.1786 76.0226 15.1424 75.059 16.3314 75.059H43.8925C45.0814 75.059 46.0453 76.0226 46.0453 77.2115V79.7068C46.0453 80.8956 45.0814 81.8596 43.8925 81.8596Z" fill="#1E3565"/>
<path id="path448" d="M49.8723 84.451H36.4075V71.1789H47.5128C48.8159 71.1789 49.8723 72.2353 49.8723 73.5384V84.451Z" fill="#1E3565"/>
<path id="path450" d="M40.0893 75.059H15.5072V57.0107H36.9301C38.6749 57.0107 40.0893 58.4253 40.0893 60.1702V75.059Z" fill="#1E3565"/>
<path id="path452" d="M45.0833 84.5271L17.5786 84.5526V81.4962H45.0833V84.5271Z" fill="#1E3565"/>
<path id="path454" d="M32.6889 75.059H4.33627V58.2483C4.33627 57.5648 4.89026 57.0107 5.57374 57.0107H32.6889V75.059Z" fill="#1E3565"/>
<path id="path456" d="M4.33627 58.2483V58.2377C4.33627 57.56 4.88556 57.0108 5.56311 57.0108H5.57374C4.89026 57.0108 4.33627 57.5648 4.33627 58.2483Z" fill="#A5A7A6"/>
<path id="path458" d="M4.33627 73.1736V58.2483C4.33627 57.5648 4.89026 57.0108 5.57374 57.0108H11.3269V71.1789H4.33627V73.1736Z" fill="#172E5C"/>
<path id="path460" d="M23.7324 50.8117L22.3636 43.1637C22.0035 40.8461 23.0521 38.705 25.3786 38.4091L25.5952 38.3942C27.7752 38.2456 29.7043 39.7948 30.0279 41.9558C30.3288 43.9661 30.6354 46.1911 30.6961 47.2767C30.8217 49.5238 28.5998 50.0261 28.5998 50.0261C28.5947 50.0268 28.7354 51.3875 28.8086 52.044L28.4331 53.7838L23.7324 50.8117Z" fill="#F9AC8A"/>
<path id="path462" d="M28.5959 50.0324C28.5959 50.0324 27.1864 50.2119 25.6137 49.3675C25.6137 49.3675 26.4321 51.0076 28.6588 50.6525L28.5959 50.0324Z" fill="#F6835F"/>
<path id="path464" d="M29.4714 44.0459C29.4889 44.2148 29.3605 44.369 29.1844 44.3906C29.0086 44.4121 28.8517 44.2928 28.8342 44.1239C28.8166 43.9551 28.945 43.8007 29.1208 43.7792C29.2969 43.7578 29.4538 43.877 29.4714 44.0459Z" fill="#1F2A31"/>
<path id="path466" d="M29.6097 42.9031C29.5728 42.9476 29.3177 42.7843 28.9725 42.8089C28.6277 42.8284 28.3866 43.023 28.3464 42.9833C28.3266 42.9659 28.362 42.8876 28.4668 42.7999C28.5697 42.7125 28.7496 42.6222 28.9645 42.6084C29.1796 42.5949 29.3656 42.6617 29.4752 42.7356C29.5868 42.8098 29.628 42.8831 29.6097 42.9031Z" fill="#1F2A31"/>
<path id="path468" d="M26.4639 44.2786C26.4813 44.4475 26.3528 44.6017 26.1767 44.6231C26.0011 44.6448 25.8441 44.5256 25.8265 44.3567C25.8089 44.1878 25.9375 44.0334 26.1134 44.0119C26.2895 43.9903 26.4463 44.1098 26.4639 44.2786Z" fill="#1F2A31"/>
<path id="path470" d="M26.2331 43.2138C26.196 43.2583 25.9407 43.0952 25.5959 43.1196C25.2509 43.1391 25.0098 43.3337 24.9696 43.2942C24.9498 43.2766 24.9847 43.1986 25.09 43.1107C25.1931 43.0234 25.3728 42.9331 25.588 42.9191C25.8029 42.9059 25.9891 42.9726 26.0987 43.0463C26.21 43.1205 26.2512 43.1938 26.2331 43.2138Z" fill="#1F2A31"/>
<path id="path472" d="M27.6516 45.7804C27.6487 45.7609 27.8607 45.7093 28.2049 45.6412C28.2926 45.626 28.3748 45.6029 28.3854 45.5417C28.402 45.4766 28.3586 45.3841 28.3088 45.2846C28.2114 45.077 28.1095 44.8594 28.0026 44.6315C27.5754 43.7009 27.2601 42.9336 27.2974 42.9165C27.3353 42.8997 27.712 43.6402 28.1389 44.5708C28.242 44.8004 28.3406 45.0192 28.4345 45.2285C28.4747 45.3265 28.5398 45.4362 28.5039 45.5713C28.4846 45.6388 28.4232 45.691 28.3678 45.7098C28.3124 45.731 28.263 45.7354 28.2196 45.7409C27.871 45.7835 27.6542 45.7999 27.6516 45.7804Z" fill="#1F2A31"/>
<path id="path474" d="M26.2709 42.1268C26.2302 42.2181 25.8891 42.1485 25.481 42.1675C25.0722 42.1784 24.7373 42.2728 24.6896 42.1849C24.6689 42.1427 24.732 42.0589 24.8708 41.9777C25.0081 41.8967 25.2232 41.8259 25.468 41.8165C25.7127 41.8078 25.9325 41.8628 26.0756 41.9336C26.2196 42.0042 26.289 42.0834 26.2709 42.1268Z" fill="#1F2A31"/>
<path id="path476" d="M29.5562 41.8876C29.4911 41.9717 29.2037 41.9139 28.866 41.9382C28.5278 41.9524 28.2473 42.0425 28.1746 41.9662C28.1425 41.9288 28.1809 41.8467 28.2996 41.7621C28.4165 41.678 28.6174 41.6007 28.8496 41.5872C29.0821 41.5742 29.2888 41.6284 29.4128 41.6988C29.5388 41.7693 29.5846 41.8467 29.5562 41.8876Z" fill="#1F2A31"/>
<path id="path478" d="M22.6519 44.7368C22.6126 44.7228 21.0782 44.3858 21.2319 45.9175C21.3857 47.4489 23.1633 47.0177 23.1633 47.0177C23.1616 46.9734 22.6519 44.7368 22.6519 44.7368Z" fill="#F9AC8A"/>
<path id="path480" d="M22.3638 46.4012C22.3566 46.3972 22.3391 46.4227 22.296 46.448C22.2541 46.4723 22.1798 46.494 22.097 46.4718C21.9292 46.4287 21.7672 46.1856 21.732 45.9103C21.7141 45.7713 21.73 45.6356 21.7683 45.5207C21.8039 45.4041 21.8685 45.3186 21.9485 45.296C22.0277 45.269 22.0903 45.3119 22.1133 45.3533C22.138 45.394 22.1315 45.4256 22.1398 45.4273C22.1446 45.4306 22.1701 45.3984 22.1514 45.3364C22.1421 45.3066 22.1205 45.2721 22.0816 45.2466C22.0419 45.2203 21.9863 45.2104 21.9302 45.2223C21.8128 45.2422 21.7175 45.3615 21.6752 45.4877C21.6266 45.6149 21.6055 45.7677 21.6257 45.9238C21.6664 46.2314 21.8533 46.5046 22.0812 46.5463C22.1918 46.5634 22.2784 46.5219 22.3212 46.4812C22.3647 46.4386 22.3695 46.4037 22.3638 46.4012Z" fill="#F6835F"/>
<path id="path482" d="M32.8865 39.5267C32.8532 39.4388 32.7802 39.3711 32.695 39.3316C32.5092 39.2451 32.3085 39.2788 32.1129 39.295C31.626 39.335 31.1317 39.2579 30.6766 39.0808C30.82 38.9893 30.952 38.8823 31.0602 38.7508C31.2835 38.4795 31.3888 38.0873 31.2428 37.7676C31.2153 37.7076 31.1729 37.646 31.1081 37.6329C31.0057 37.612 30.9281 37.7185 30.8665 37.8028C30.6634 38.0801 30.4634 38.2104 30.1197 38.2094C29.9062 38.209 29.6969 38.1815 29.5203 38.0945L29.4991 38.075C29.4114 38.0006 29.3259 37.9297 29.2418 37.8613L29.2411 37.8606L29.2413 37.8611C28.6089 37.346 28.0744 36.9989 27.5439 36.8435C26.7662 36.6161 25.5034 36.617 24.7438 36.8984C23.984 37.1798 23.346 37.8813 23.3161 38.6908C22.8424 38.3641 22.1861 38.4318 21.6746 38.6985L21.6607 38.6939C21.0882 38.9637 20.8129 39.6236 20.6973 40.2456C20.691 40.2795 20.686 40.314 20.6803 40.3482C20.511 40.686 20.2651 40.9852 19.9586 41.2063C19.9046 41.2453 19.843 41.2928 19.8424 41.3595C19.8419 41.4255 19.9024 41.4742 19.9597 41.5072C20.112 41.5951 20.2842 41.6457 20.4594 41.6597C20.4193 41.8086 20.3695 41.9546 20.3038 42.0957C20.248 42.2157 20.1818 42.3593 20.2518 42.4716C20.306 42.5583 20.4256 42.5845 20.525 42.56C20.6243 42.5352 20.7081 42.4706 20.7888 42.4077C20.7382 42.5727 20.6876 42.7375 20.6371 42.9025C20.8553 42.9187 21.0758 42.8797 21.2781 42.7961C21.4598 43.3494 21.6576 44.3877 21.8409 44.7568C22.2482 44.7238 22.3426 44.6701 22.5545 44.7178C22.8284 44.7797 22.7734 45.2593 23.1055 45.0919C23.2745 45.0066 23.4788 44.314 23.5201 44.1292C23.7934 42.903 23.7978 41.6178 23.5347 40.3894C23.7546 40.1032 24.03 39.8601 24.3413 39.6773L24.317 39.704C24.9219 39.4248 25.6094 39.141 26.2326 39.3766C26.7161 39.5595 27.0341 40.0112 27.4165 40.3588C28.1409 41.0182 28.918 41.3316 29.8961 41.2776C30.0503 41.9452 30.1852 43.0488 30.2803 43.6766L30.6949 42.3603L30.6959 42.3653C30.732 42.287 30.7607 42.209 30.7882 42.1309L30.7978 42.1071L30.7976 42.1042C30.8409 41.9787 30.8817 41.8531 30.9397 41.7276L30.9465 41.7325C31.3179 42.0003 31.7764 41.4896 31.4707 41.1485C31.41 41.0808 31.3396 41.022 31.2611 40.9758C31.4319 41.1071 31.6716 41.1545 31.8703 41.0712C32.0691 40.9881 32.2078 40.7652 32.1688 40.5532C32.1423 40.4087 32.0255 40.2885 31.8879 40.2439C32.1664 40.2379 32.443 40.1499 32.6701 39.989C32.8193 39.8833 32.9595 39.7199 32.8865 39.5267Z" fill="#1F2A31"/>
<path id="path484" d="M24.0469 38.8789C24.0519 38.8842 23.959 38.9473 23.8424 39.1066C23.7269 39.2651 23.6062 39.533 23.5714 39.8849C23.553 40.0598 23.5497 40.254 23.5701 40.4602C23.5896 40.6669 23.6279 40.8864 23.6666 41.1179C23.7046 41.3492 23.7455 41.5939 23.7558 41.8515C23.7609 41.9799 23.7583 42.1114 23.7434 42.2441C23.7276 42.3747 23.7078 42.5166 23.6222 42.6358C23.5541 42.7329 23.4296 42.7852 23.3162 42.7734C23.2023 42.7647 23.0967 42.7149 23.0158 42.6407C22.8549 42.4865 22.7979 42.2764 22.7435 42.0919L22.7912 42.0928C22.7309 42.2697 22.6684 42.4443 22.5646 42.5894C22.4628 42.7349 22.3123 42.8394 22.1518 42.8698C22.0719 42.8849 21.9894 42.8801 21.9167 42.8519C21.8426 42.8247 21.7855 42.771 21.7443 42.7127C21.7047 42.6532 21.6803 42.5857 21.6772 42.5188C21.6745 42.4518 21.6942 42.3863 21.7321 42.3374L21.758 42.3562C21.6045 42.5701 21.4324 42.6939 21.3119 42.765C21.2511 42.8006 21.2018 42.823 21.1683 42.8375C21.1346 42.8512 21.1168 42.8575 21.1161 42.856C21.1156 42.8546 21.1323 42.8459 21.1645 42.8295C21.1966 42.8124 21.2442 42.7876 21.3029 42.7503C21.4192 42.6756 21.5853 42.5496 21.7317 42.3378L21.7576 42.3566C21.69 42.4441 21.6995 42.5848 21.7755 42.6913C21.8137 42.7438 21.8659 42.7912 21.9309 42.8144C21.9957 42.8385 22.0709 42.8425 22.1438 42.8279C22.2911 42.7985 22.4313 42.7004 22.5264 42.5621C22.6242 42.4239 22.6846 42.2538 22.7439 42.0767L22.769 42.0018L22.7916 42.0779C22.8459 42.2622 22.9043 42.4636 23.0509 42.6024C23.1233 42.6689 23.22 42.7137 23.3197 42.7211C23.4198 42.7305 23.5203 42.6879 23.5799 42.6045C23.6548 42.5012 23.6763 42.3665 23.6913 42.2381C23.706 42.1087 23.7088 41.9799 23.7042 41.8534C23.6948 41.5999 23.6554 41.3571 23.6187 41.1256C23.5813 40.8941 23.5444 40.6734 23.5266 40.4641C23.5079 40.255 23.5134 40.0582 23.5345 39.8806C23.5745 39.5238 23.7032 39.2518 23.8257 39.0945C23.9496 38.9362 24.0469 38.8789 24.0469 38.8789Z" fill="#3C515C"/>
<path id="path486" d="M31.1972 40.3781L31.1809 40.3952L31.1288 40.4414C31.1062 40.4624 31.0773 40.4867 31.0399 40.5118C31.0033 40.5378 30.9619 40.5691 30.9106 40.5971C30.712 40.7163 30.3878 40.8476 29.9679 40.864C29.5521 40.8816 29.0414 40.7838 28.5656 40.4976C28.0859 40.2196 27.6463 39.7838 27.2714 39.2721C27.0816 39.0165 26.9214 38.7512 26.7496 38.5086C26.5786 38.2658 26.3945 38.0439 26.1813 37.8755C25.9705 37.7057 25.7332 37.5884 25.4969 37.5469C25.3786 37.5241 25.2623 37.5277 25.1524 37.5412C25.0423 37.5578 24.9397 37.5905 24.8462 37.6317C24.6595 37.7156 24.514 37.8377 24.4066 37.9591C24.2986 38.0815 24.2307 38.2065 24.1857 38.3123C24.104 38.5284 24.1115 38.6611 24.1033 38.6597L24.1025 38.6361C24.1037 38.6173 24.1049 38.5944 24.1064 38.5665C24.1115 38.5053 24.1288 38.4157 24.1666 38.3048C24.2093 38.196 24.276 38.0671 24.3842 37.9399C24.4921 37.8139 24.6393 37.6864 24.8308 37.5978C24.9264 37.5542 25.0322 37.5195 25.1461 37.5009C25.2599 37.4858 25.382 37.4812 25.5041 37.5038C25.7499 37.5448 25.9949 37.6647 26.2117 37.8375C26.4307 38.0088 26.619 38.2345 26.7915 38.4788C26.9655 38.7231 27.1257 38.9878 27.3138 39.2408C27.6858 39.7486 28.1194 40.1796 28.5901 40.4556C29.0575 40.7399 29.5564 40.8389 29.9667 40.8269C30.3801 40.8153 30.701 40.6917 30.9002 40.5792C31.1011 40.465 31.1927 40.3721 31.1972 40.3781Z" fill="#3C515C"/>
<path id="path488" d="M31.3044 39.3728C31.3066 39.3759 31.2798 39.3983 31.2295 39.4368C31.1799 39.4761 31.1025 39.5262 31.0033 39.5811C30.9045 39.6368 30.7804 39.6922 30.6386 39.7421C30.4959 39.7893 30.335 39.8298 30.1628 39.8534C29.9903 39.8748 29.8243 39.8772 29.6742 39.8681C29.5244 39.8563 29.3904 39.8351 29.2803 39.8064C29.1705 39.7789 29.0828 39.7505 29.0247 39.7252C28.9662 39.7009 28.9346 39.6859 28.9358 39.6828C28.9394 39.6734 29.0695 39.725 29.2885 39.77C29.3979 39.7936 29.5299 39.8107 29.6771 39.8196C29.8245 39.8259 29.9871 39.8223 30.156 39.8011C30.3247 39.778 30.4824 39.7399 30.6234 39.6958C30.7633 39.6493 30.8867 39.5987 30.9862 39.5481C31.1861 39.4479 31.2986 39.3648 31.3044 39.3728Z" fill="#3C515C"/>
<path id="path490" d="M27.7344 46.8296C27.7104 46.7763 27.3647 46.9553 26.9655 46.7872C26.5658 46.62 26.4128 46.2314 26.3632 46.2538C26.3389 46.2603 26.3386 46.3706 26.4152 46.5284C26.4894 46.6836 26.6542 46.8809 26.8985 46.984C27.1428 47.0861 27.3839 47.0592 27.5318 46.9972C27.6831 46.9353 27.7487 46.8522 27.7344 46.8296Z" fill="#1F2A31"/>
<path id="path492" d="M49.1235 79.7634L52.0865 83.7196C52.0865 83.7196 57.1028 82.0365 57.7217 82.7143L50.257 88.735L45.3873 82.76L49.1235 79.7634Z" fill="#1F2A31"/>
<path id="path496" d="M50.257 88.735L49.7899 88.1134L57.1214 82.5733C57.1214 82.5733 57.5705 82.4499 57.7218 82.7143L50.257 88.735Z" fill="#3C515C"/>
<path id="path498" d="M52.1768 83.5839C52.205 83.6215 52.0361 83.7848 51.9513 84.0467C51.8595 84.3064 51.8944 84.5389 51.8494 84.5514C51.8101 84.5716 51.6887 84.3098 51.7969 83.9946C51.9024 83.6784 52.1578 83.5442 52.1768 83.5839Z" fill="white"/>
<path id="path500" d="M53.2208 83.2762C53.2577 83.305 53.1498 83.4943 53.1505 83.7482C53.1435 84.0021 53.2466 84.1941 53.209 84.2218C53.1794 84.255 52.9821 84.0621 52.9874 83.7463C52.9901 83.4305 53.1922 83.2421 53.2208 83.2762Z" fill="white"/>
<path id="path502" d="M54.4213 83.8547C54.3946 83.8891 54.197 83.748 54.1296 83.4728C54.0602 83.1982 54.1686 82.981 54.2083 82.9987C54.2531 83.012 54.2288 83.2083 54.2876 83.4336C54.3411 83.6598 54.4548 83.822 54.4213 83.8547Z" fill="white"/>
<path id="path504" d="M51.4016 82.7574C51.4131 82.8029 51.2052 82.8874 51.0106 83.0676C50.8121 83.2437 50.7075 83.4422 50.6634 83.4263C50.621 83.4169 50.6687 83.1558 50.901 82.9467C51.1317 82.7362 51.3963 82.7143 51.4016 82.7574Z" fill="white"/>
<path id="path520" d="M22.9777 71.5921C23.1031 71.5528 27.4666 69.6388 31.0544 68.1625C33.4403 67.1809 36.4088 66.6545 36.4088 66.6545C36.4088 66.6545 40.0522 64.5338 41.4338 66.4615C42.8154 68.3892 52.6302 81.8243 52.5613 82.0315C52.4921 82.2387 47.7995 86.4045 47.7995 86.4045C47.7995 86.4045 37.6887 73.5299 37.4815 73.5991C37.2741 73.668 32.5991 77.3293 32.5991 77.3293C32.5991 77.3293 31.1951 78.78 30.1589 78.918C29.1228 79.0564 23.0604 78.5752 23.0604 78.5752L20.7641 72.3521L22.9777 71.5921Z" fill="#1F2A31"/>
<path id="path522" d="M28.1346 77.013C28.3514 77.1575 30.6547 78.7721 30.6547 78.7721L35.8667 79.9758L36.9284 97.092L43.1565 96.8697C43.1565 96.8697 43.1652 84.5285 43.1652 81.6379C43.1652 78.7472 43.0929 76.0736 42.2259 75.1341C41.3587 74.1948 37.4815 73.599 37.4815 73.599L28.1346 77.013Z" fill="#1F2A31"/>
<path id="path524" d="M43.1565 80.9742C43.152 80.9742 43.1495 80.9043 43.1479 80.7714C43.1462 80.6263 43.144 80.4331 43.1411 80.1908C43.1334 79.6866 43.1206 78.9567 43.0597 78.058C43.0248 77.6095 42.9802 77.118 42.8954 76.5972C42.8706 76.4678 42.8453 76.3363 42.8197 76.2028C42.7846 76.072 42.7557 75.9366 42.7137 75.8044C42.6285 75.5396 42.5128 75.2789 42.2984 75.0879C41.8515 74.7172 41.2623 74.4787 40.6566 74.2664C40.0447 74.0595 39.3957 73.8896 38.7263 73.7388C38.3755 73.661 38.0269 73.5902 37.6983 73.5329L37.7496 73.5196C35.7773 75.0614 34.0245 76.4314 32.7525 77.4257C32.1257 77.9082 31.6181 78.2992 31.2555 78.5785C31.0857 78.7059 30.95 78.8078 30.8474 78.8848C30.7535 78.9537 30.7029 78.9882 30.7002 78.9848C30.6978 78.9814 30.7431 78.9405 30.832 78.8654C30.931 78.7837 31.0618 78.6758 31.2259 78.5406C31.5824 78.2539 32.0816 77.852 32.6981 77.3563C33.9633 76.3536 35.7067 74.9718 37.6687 73.417L37.6916 73.3989L37.72 73.4037C38.0529 73.4616 38.402 73.5324 38.7549 73.6104C39.428 73.762 40.0806 73.934 40.6983 74.1445C41.3109 74.3623 41.906 74.6013 42.3796 74.9978C42.6152 75.2098 42.7393 75.4984 42.8241 75.7699C42.8662 75.907 42.8947 76.0448 42.9296 76.179C42.9544 76.3146 42.979 76.4481 43.0028 76.5796C43.084 77.1069 43.1233 77.6011 43.1524 78.052C43.2018 78.9547 43.2004 79.6859 43.1924 80.1908C43.1878 80.4432 43.1809 80.6391 43.1744 80.7718C43.1674 80.9048 43.1611 80.9744 43.1565 80.9742Z" fill="#3C515C"/>
<path id="path526" d="M23.0722 51.1339L23.4529 49.2018L27.6576 51.5663L28.6265 50.3027L28.7243 50.6937L32.9053 57.8164L35.5682 66.4252L24.15 71.0932L22.9029 64.065L23.0722 51.1339Z" fill="#FAF9F9"/>
<path id="path528" d="M31.8783 65.4813C31.8737 65.4817 31.8631 65.4333 31.8467 65.3403C31.8294 65.2331 31.8077 65.0985 31.7814 64.9337C31.7296 64.5803 31.6458 64.0695 31.5321 63.4413C31.3056 62.1842 30.9255 60.4588 30.3521 58.5964C29.7756 56.7342 29.117 55.0943 28.5954 53.9286C28.3353 53.3454 28.1168 52.8766 27.9602 52.5552C27.8891 52.4044 27.831 52.281 27.7848 52.1827C27.746 52.0967 27.7277 52.0507 27.7316 52.0486C27.7356 52.0464 27.7619 52.0886 27.8084 52.1705C27.8604 52.2661 27.9257 52.3856 28.0057 52.5323C28.1767 52.8469 28.4085 53.3102 28.68 53.89C29.2244 55.0486 29.8995 56.6889 30.4779 58.5576C31.0532 60.4263 31.4203 62.1616 31.6236 63.4254C31.726 64.0573 31.7959 64.5709 31.832 64.9272C31.8486 65.0932 31.8621 65.229 31.873 65.3372C31.8809 65.4312 31.8829 65.4808 31.8783 65.4813Z" fill="#1F2A31"/>
<path id="path530" d="M29.2871 51.9827C29.2931 51.9878 29.2418 52.0596 29.1423 52.187C29.0247 52.3321 28.8802 52.5111 28.7072 52.725L28.6805 52.7582L28.6472 52.7286C28.3541 52.4689 27.9982 52.1535 27.5981 51.7989L27.6952 51.7717C27.5774 52.1839 27.4485 52.6349 27.3129 53.1092L27.2914 53.1844L27.2208 53.1497C27.124 53.1018 27.0209 53.0509 26.9168 52.9996C25.9084 52.5007 24.999 52.0427 24.3435 51.7052C24.0356 51.5436 23.7767 51.4079 23.5704 51.2995C23.3893 51.2012 23.2909 51.1429 23.295 51.1348C23.2989 51.1266 23.405 51.1694 23.5932 51.2538C23.8043 51.3521 24.0693 51.4754 24.3849 51.6219C25.0508 51.9382 25.9667 52.3829 26.9751 52.8816C27.0792 52.9331 27.1823 52.9842 27.2789 53.0321L27.1871 53.0726C27.3268 52.5995 27.4596 52.1497 27.581 51.7385L27.6082 51.646L27.6781 51.711C28.0693 52.0755 28.4172 52.3998 28.7036 52.6667L28.6436 52.6703C28.8282 52.4665 28.9823 52.2959 29.1076 52.1574C29.2182 52.0394 29.2811 51.9774 29.2871 51.9827Z" fill="#1F2A31"/>
<path id="path532" d="M24.15 78.6573L24.1457 78.6572C24.1469 78.6572 24.1486 78.6573 24.15 78.6573Z" fill="#AC4340"/>
<path id="path534" d="M24.15 78.6573C24.1486 78.6573 24.1469 78.6572 24.1457 78.6572L23.0605 78.5752C23.0605 78.5752 23.9202 71.7304 23.9643 71.5986C24.0006 71.4894 25.1825 70.7549 25.5897 70.5046L25.72 70.4511L24.15 78.6573Z" fill="#161C20"/>
<path id="path536" d="M25.5897 70.5046C25.6745 70.4523 25.7258 70.421 25.7258 70.421L25.72 70.4511L25.5897 70.5046Z" fill="#A2A4A3"/>
<path id="path538" d="M23.2948 50.0042L22.6344 51.2246L19.0321 53.1642L20.2143 66.4904C20.2143 66.4904 17.9238 72.9891 17.9238 75.8655C17.9238 78.7419 18.563 80.1269 19.3087 80.4998C20.0545 80.8727 22.931 79.4878 22.931 79.4878C22.931 79.4878 23.241 77.7913 24.9117 73.9491C26.5824 70.1066 28.3642 65.9045 28.3642 65.9045C28.3642 65.9045 28.8968 63.8269 27.6718 60.0449C26.4466 56.2629 23.2948 50.0042 23.2948 50.0042Z" fill="#3C515C"/>
<path id="path540" d="M40.2223 55.8756C40.2223 55.8756 40.1469 53.8677 40.2536 53.5311L40.2568 53.521C40.4184 53.0209 41.0019 52.4938 41.5194 52.402C41.7918 52.3536 42.0103 52.3668 42.1019 52.4576C42.2018 52.5574 42.3382 53.3056 42.3382 53.3056L45.0195 52.8101C45.0195 52.8101 43.4353 55.283 42.9877 55.9462C42.5401 56.6094 42.0775 57.0491 42.0775 57.0491L39.1166 64.1042L37.9147 60.0859L40.2223 55.8756Z" fill="#F9AC8A"/>
<path id="path542" d="M46.1069 48.5964C45.4379 49.8727 43.1874 54.25 42.5449 55.5C42.448 55.6889 42.2206 55.7682 42.0267 55.6814C41.8176 55.588 41.7297 55.3379 41.8345 55.1338L45.3849 48.2225C45.4895 48.0187 45.7412 47.9416 45.9419 48.0517C46.1361 48.1582 46.2096 48.4003 46.1069 48.5964Z" fill="#1F2A31"/>
<path id="path544" d="M45.2009 50.4335C45.2654 50.4441 45.5266 50.3757 45.5637 50.6778C45.6008 50.9796 45.5528 52.0177 45.4042 52.0852C45.2553 52.1524 45.0238 52.2574 45.0238 52.2574C45.0238 52.2574 45.1614 52.9124 45.0062 53.142C44.8513 53.3718 44.5618 53.5234 44.5618 53.5234C44.5618 53.5234 44.5485 54.0669 44.3859 54.2801C44.2235 54.493 43.8446 54.844 43.8446 54.844C43.8446 54.844 43.7395 55.7123 43.3341 55.8725C42.9284 56.0327 42.8371 56.1603 42.8371 56.1603L42.7094 55.6373C42.7094 55.6373 41.6092 54.8804 41.3871 54.7419C41.165 54.6034 41.0633 54.2909 41.2796 54.1529C41.4962 54.0151 42.9224 54.7438 42.9224 54.7438L43.4382 54.2112L43.1325 53.6241C43.1325 53.6241 42.5039 52.9406 42.5177 52.7951C42.5314 52.6494 42.8005 52.4077 43.0513 52.4338C43.3023 52.4595 43.9318 53.0112 43.9318 53.0112C43.9773 53.13 44.1419 53.1394 44.2006 53.0266L44.2382 52.9546C44.2382 52.9546 44.0202 52.274 43.9041 51.7677C43.8732 51.6335 43.9173 51.401 44.0472 51.3427C44.3083 51.2256 44.5271 51.2148 44.6682 51.4636L45.2009 50.4335Z" fill="#F9AC8A"/>
<path id="path546" d="M40.9217 53.3179C40.9224 53.3321 41.0416 53.3393 41.2452 53.3393L41.2064 53.3109C41.2348 53.4388 41.2647 53.6135 41.3791 53.791C41.4353 53.878 41.5247 53.9628 41.6367 54.0081C41.7463 54.0548 41.8891 54.0695 42.0149 54.0013C42.1238 53.9409 42.1838 53.8329 42.2153 53.7368C42.2471 53.6381 42.2589 53.5443 42.2691 53.4554C42.2881 53.2769 42.2821 53.1148 42.2659 52.9809C42.2324 52.712 42.1628 52.5581 42.1493 52.5626C42.1305 52.5675 42.1691 52.7274 42.1797 52.9878C42.1843 53.1177 42.1811 53.2726 42.157 53.4417C42.1322 53.6063 42.1007 53.8117 41.9556 53.8941C41.8745 53.9389 41.7697 53.9334 41.6815 53.8977C41.5914 53.8626 41.5218 53.8016 41.4692 53.7281C41.3642 53.5812 41.3211 53.4155 41.2801 53.2919L41.2698 53.2605L41.2413 53.2634C41.0387 53.2842 40.9209 53.3034 40.9217 53.3179Z" fill="#F6835F"/>
<path id="path548" d="M42.7094 55.6374C42.7188 55.6234 42.5369 55.4817 42.2351 55.2637C42.0713 55.1481 41.8927 55.0218 41.701 54.8862C41.5998 54.8159 41.4953 54.7434 41.3878 54.6687C41.2953 54.595 41.2074 54.4815 41.1939 54.3699C41.1751 54.2642 41.2924 54.1866 41.4006 54.2011C41.5213 54.2097 41.6456 54.2471 41.7598 54.2832C41.9898 54.3594 42.1934 54.4456 42.3642 54.5174C42.7051 54.6629 42.9142 54.7593 42.9224 54.7438C42.9299 54.7294 42.7347 54.6056 42.4003 54.4386C42.2327 54.3562 42.0313 54.2608 41.7961 54.1765C41.6774 54.1363 41.5533 54.0941 41.4068 54.0811C41.337 54.0695 41.2358 54.0941 41.1748 54.1442C41.1043 54.1926 41.0573 54.2948 41.0717 54.3818C41.0975 54.555 41.2023 54.6718 41.3143 54.7634C41.4259 54.838 41.5338 54.9103 41.6388 54.9804C41.8354 55.1078 42.0187 55.2269 42.1867 55.3357C42.5008 55.535 42.6998 55.6513 42.7094 55.6374Z" fill="#F6835F"/>
<path id="path550" d="M44.4088 53.7646C44.4406 53.7588 44.4182 53.5369 44.2739 53.3102C44.131 53.0826 43.9402 52.9674 43.9214 52.9937C43.899 53.0209 44.0402 53.1676 44.1703 53.3757C44.3028 53.5824 44.3746 53.773 44.4088 53.7646Z" fill="#F6835F"/>
<path id="path552" d="M44.5803 51.3494C44.548 51.3661 44.6497 51.5882 44.7923 51.8397C44.933 52.0907 45.013 52.3102 45.0469 52.3022C45.0794 52.2964 45.0479 52.0459 44.9 51.7814C44.7528 51.5214 44.6082 51.3352 44.5803 51.3494Z" fill="#F6835F"/>
<path id="path554" d="M39.1847 57.5759C39.0783 57.7356 37.4883 60.4892 37.4883 60.4892C37.4883 60.4892 33.8547 52.1871 32.5991 52.0548C31.3001 51.9182 32.3069 55.6496 32.3069 55.6496L35.4285 65.1777C35.4285 65.1777 37.6227 65.8571 38.8479 65.058C40.073 64.2589 42.8333 58.7556 42.8333 58.7556L39.1847 57.5759Z" fill="#3C515C"/>
<path id="path556" d="M28.7216 50.6339C28.7216 50.6339 31.7354 56.5169 32.599 59.6332C33.1654 61.6781 33.9686 67.2078 33.9686 67.2078L36.4511 66.6583L34.3302 59.2461L32.599 52.0548L29.918 51.5241L28.7216 50.6339Z" fill="#3C515C"/>
<path id="path558" d="M27.798 64.7373C27.7946 64.7395 27.7686 64.6966 27.7224 64.6126C27.6708 64.5157 27.6053 64.3931 27.5246 64.2418C27.3492 63.9021 27.1088 63.4357 26.8149 62.866C26.2182 61.6846 25.4063 60.0775 24.5094 58.3018C24.0652 57.4058 23.6283 56.5636 23.2647 55.7694C22.9023 54.9753 22.6436 54.2093 22.5337 53.5345C22.4195 52.8611 22.4365 52.2969 22.4922 51.9206C22.5187 51.7318 22.5514 51.588 22.5767 51.4921C22.6037 51.3967 22.6195 51.3473 22.6232 51.3487C22.6344 51.3523 22.5748 51.5525 22.5351 51.9279C22.4934 52.3015 22.4888 52.8556 22.6109 53.5154C22.7288 54.1765 22.9904 54.9267 23.3551 55.7118C23.7207 56.4967 24.1615 57.3398 24.6055 58.235C25.4913 60.0185 26.2933 61.6323 26.8828 62.819C27.1639 63.3974 27.3943 63.871 27.5619 64.216C27.6352 64.3721 27.6949 64.4991 27.7416 64.5991C27.7819 64.6875 27.8011 64.7349 27.798 64.7373Z" fill="#1F2A31"/>
<path id="path560" d="M33.5615 53.9086C33.5656 53.9072 33.5834 53.9477 33.6133 54.0259C33.6468 54.1189 33.688 54.2326 33.7378 54.3704C33.8416 54.6713 33.9794 55.1107 34.1331 55.6588C34.4376 56.7559 34.7684 58.2953 35.0539 60.0064C35.1946 60.8614 35.3285 61.6752 35.4509 62.4191C35.5126 62.7884 35.5714 63.1404 35.6263 63.4709C35.6841 63.7961 35.767 64.0949 35.851 64.3652C36.0209 64.9053 36.1811 65.337 36.2772 65.6405C36.3256 65.7921 36.3608 65.9106 36.382 65.9918C36.403 66.0729 36.4119 66.1163 36.4075 66.1175C36.4032 66.119 36.3859 66.0782 36.357 65.9997C36.3223 65.9074 36.2801 65.7942 36.2288 65.6574C36.1182 65.3599 35.945 64.9339 35.7626 64.3934C35.6723 64.1231 35.5829 63.8222 35.5191 63.49C35.4601 63.1597 35.3974 62.8084 35.3314 62.4391C35.2059 61.6959 35.0686 60.8829 34.9243 60.0286C34.639 58.3189 34.3239 56.7826 34.0433 55.6827C33.9016 55.1334 33.7778 54.6908 33.6889 54.3859C33.6487 54.2452 33.6154 54.1293 33.5882 54.0341C33.5663 53.9534 33.5571 53.9101 33.5615 53.9086Z" fill="#1F2A31"/>
<path id="path562" d="M29.918 51.5241C29.9204 51.52 29.9619 51.5412 30.0397 51.5853C30.1163 51.6306 30.2254 51.7041 30.3599 51.8067C30.6273 52.0141 30.9905 52.3437 31.3965 52.7915C31.5991 53.0156 31.814 53.2673 32.0267 53.5535C32.2392 53.8419 32.4377 54.164 32.6422 54.5073C33.0462 55.1946 33.4483 55.9828 33.7489 56.8556C34.059 57.7231 34.2883 58.5776 34.3888 59.3733C34.4948 60.1688 34.4649 60.8956 34.3943 61.495C34.3225 62.0956 34.2127 62.573 34.1259 62.8987C34.0828 63.0618 34.045 63.1871 34.0171 63.2714C33.9893 63.356 33.9727 63.3996 33.9684 63.3984C33.9641 63.3969 33.9722 63.3509 33.9915 63.2644C34.0142 63.1637 34.0421 63.039 34.0761 62.8867C34.1471 62.5588 34.2425 62.0813 34.3018 61.4851C34.3601 60.8896 34.3796 60.1724 34.2688 59.3892C34.163 58.6056 33.933 57.7614 33.6251 56.8999C33.3271 56.0348 32.9335 55.255 32.5374 54.5682C32.3377 54.2266 32.1423 53.9019 31.9385 53.6178C31.7328 53.3328 31.5234 53.0794 31.3271 52.8532C30.933 52.401 30.5824 52.064 30.3276 51.8464C30.0722 51.6294 29.9122 51.534 29.918 51.5241Z" fill="#1F2A31"/>
<path id="path564" d="M22.7558 73.2228C22.7612 73.2216 22.7784 73.2695 22.8035 73.3618C22.8279 73.4543 22.859 73.5914 22.8868 73.7684C22.9421 74.1216 22.9835 74.6391 22.91 75.2565L22.9032 75.3134L22.8454 75.3035C22.1647 75.1878 21.342 75.083 20.4543 75.0368C19.5395 74.9876 18.6871 75.0091 17.982 75.057L17.8619 75.0652L17.9338 74.9703C18.2811 74.5114 18.5747 74.1238 18.799 73.8274C19.01 73.555 19.1343 73.4032 19.1434 73.41C19.1526 73.4167 19.0456 73.581 18.8497 73.8645C18.6351 74.1678 18.3542 74.5649 18.0219 75.0346L17.9736 74.9481C18.6814 74.886 19.5399 74.8561 20.4611 74.9053C21.3551 74.952 22.1828 75.0655 22.865 75.1948L22.8006 75.242C22.8841 74.6383 22.8596 74.1283 22.8235 73.7766C22.7864 73.4242 22.7425 73.2257 22.7558 73.2228Z" fill="#1F2A31"/>
<path id="path566" d="M19.0321 53.1642C19.0321 53.1642 16.8004 54.6521 16.5037 56.3531C16.104 58.6448 16.8947 66.6721 17.1031 68.4962C17.3115 70.3201 18.5102 71.9359 19.761 72.0402C21.0118 72.1443 30.9139 68.5483 30.9139 68.5483L29.9236 64.9002L22.7317 66.3594L22.0021 57.9166L19.0321 53.1642Z" fill="#3C515C"/>
<path id="path568" d="M22.095 58.9922L22.7317 66.3594L29.9235 64.9002L30.9139 68.5482C30.9139 68.5482 23.3451 71.5403 22.2829 71.6733C21.2205 71.806 18.3426 72.3461 17.7229 70.4211" fill="#3C515C"/>
<path id="path570" d="M33.6571 59.9414L36.9616 60.2979C37.0867 60.3114 37.177 60.4237 37.1635 60.5487L36.574 66.0139C36.5605 66.1392 36.448 66.2295 36.323 66.216L33.0185 65.8595C32.8935 65.846 32.8031 65.7337 32.8166 65.6087L33.4061 60.1432C33.4196 60.0182 33.5321 59.9279 33.6571 59.9414Z" fill="#1E3565"/>
<path id="path572" d="M33.6571 59.9414C33.6605 59.9503 33.5795 59.9264 33.4873 60.0098C33.4398 60.0522 33.4193 60.1206 33.4174 60.216C33.409 60.3107 33.3993 60.4172 33.3887 60.5355C33.3406 61.0291 33.2729 61.7205 33.1898 62.5694C33.1006 63.4319 32.9951 64.4526 32.8783 65.5846C32.8547 65.7084 32.9344 65.8065 33.0695 65.8048C33.2148 65.8202 33.3615 65.8356 33.5102 65.8513C33.807 65.8829 34.1103 65.9151 34.4189 65.9479C35.0361 66.0139 35.6749 66.0826 36.3295 66.1527C36.389 66.1594 36.4495 66.1312 36.4829 66.0821C36.4996 66.0563 36.5087 66.032 36.5116 65.9968L36.5249 65.8754C36.5424 65.7137 36.5598 65.5531 36.5771 65.3938C36.6118 65.0751 36.646 64.761 36.6795 64.4524C36.7475 63.8354 36.813 63.2404 36.8754 62.6728C36.9385 62.1064 36.9985 61.5677 37.0549 61.0628C37.0691 60.937 37.083 60.813 37.0968 60.6913C37.1023 60.6337 37.1134 60.5634 37.1144 60.5176C37.1132 60.4709 37.0924 60.4256 37.0587 60.3938C37.0226 60.3608 36.9855 60.3468 36.9281 60.3427C36.8708 60.3362 36.8142 60.3297 36.7581 60.3232C36.646 60.3105 36.5362 60.2979 36.429 60.2856C35.582 60.1859 34.8918 60.1045 34.3993 60.0464C34.1695 60.0165 33.9862 59.9927 33.8484 59.9749C33.7224 59.957 33.6566 59.9457 33.6571 59.9414C33.6576 59.937 33.7243 59.9399 33.851 59.9493C33.9896 59.9611 34.1739 59.977 34.4046 59.997C34.8983 60.0452 35.5897 60.1129 36.4386 60.196C36.5461 60.2071 36.6559 60.2182 36.7682 60.2295C36.8243 60.2353 36.8812 60.2411 36.9385 60.2469C36.9961 60.2485 37.0763 60.2721 37.1259 60.322C37.1784 60.3702 37.2119 60.4405 37.2146 60.514C37.2131 60.5885 37.2035 60.6381 37.1984 60.7024C37.1859 60.8241 37.1729 60.9481 37.1601 61.0744C37.1074 61.5795 37.0512 62.1187 36.992 62.6855C36.932 63.2531 36.8691 63.8486 36.8038 64.4658C36.7708 64.7744 36.7371 65.0886 36.7031 65.4073C36.686 65.5668 36.6687 65.7272 36.6513 65.8889L36.6383 66.0103C36.6352 66.0566 36.6174 66.112 36.5882 66.1541C36.5297 66.2413 36.4205 66.2917 36.3158 66.2794C35.6615 66.2083 35.0226 66.1389 34.4054 66.072C34.097 66.038 33.7939 66.005 33.4969 65.9722C33.3488 65.9561 33.2018 65.9397 33.0565 65.9238C32.9886 65.9233 32.8771 65.8908 32.8243 65.8185C32.7636 65.7528 32.7458 65.6439 32.7614 65.5718C32.8886 64.441 33.0033 63.4215 33.1001 62.5598C33.2001 61.7128 33.2813 61.0226 33.3396 60.5302C33.3543 60.4121 33.3678 60.3061 33.3796 60.2119C33.3839 60.1223 33.4143 60.0303 33.4699 59.9908C33.5798 59.9052 33.6622 59.9428 33.6571 59.9414Z" fill="#1F2A31"/>
<path id="path574" d="M36.0149 63.2622L35.6224 63.2198L35.6976 62.5224L36.09 62.5646L36.0149 63.2622Z" fill="white"/>
<path id="path576" d="M36.1247 62.2437L35.7323 62.2016L35.8077 61.5039L36.1999 61.5463L36.1247 62.2437Z" fill="white"/>
<path id="path578" d="M35.905 64.2806L35.5126 64.2382L35.5878 63.5408L35.9802 63.5832L35.905 64.2806Z" fill="white"/>
<path id="path580" d="M35.7906 65.2839L35.3984 65.2415L35.4735 64.5441L35.8657 64.5865L35.7906 65.2839Z" fill="white"/>
<path id="path582" d="M17.7229 70.4211C17.7248 70.4206 17.7363 70.4423 17.7569 70.4854C17.7795 70.5345 17.8086 70.5976 17.8451 70.6771C17.927 70.8412 18.0826 71.0746 18.3614 71.2888C18.6387 71.5051 19.0508 71.6721 19.5489 71.7458C20.0475 71.8219 20.6283 71.819 21.2654 71.7545C21.5845 71.7241 21.917 71.6738 22.2671 71.627C22.6045 71.5683 22.9552 71.4468 23.3157 71.3319C24.0368 71.093 24.8033 70.8142 25.6113 70.516C27.2266 69.9161 29.0069 69.2291 30.8898 68.4875L30.8508 68.5654C30.6759 67.9209 30.4911 67.2413 30.3037 66.5516C30.1539 65.9987 30.0057 65.4526 29.8604 64.9173L29.9366 64.9643C27.2933 65.4967 24.8436 65.9901 22.7426 66.4133L22.682 66.4254L22.6769 66.3642C22.4951 64.1479 22.3441 62.3078 22.2378 61.0127C22.1891 60.3753 22.1508 59.8725 22.1239 59.5201C22.113 59.3541 22.1045 59.2237 22.0981 59.1274C22.0933 59.0385 22.0921 58.9925 22.095 58.9922C22.0979 58.992 22.1046 59.0375 22.1151 59.1259C22.1253 59.222 22.1393 59.3519 22.157 59.5172C22.1909 59.8691 22.2394 60.3709 22.3008 61.0072C22.4184 62.3016 22.5853 64.1402 22.7863 66.3546L22.7207 66.3057C24.8204 65.8764 27.269 65.376 29.9105 64.8361L29.9708 64.8238L29.9867 64.8831C30.1322 65.4182 30.2806 65.9643 30.4307 66.5172C30.6178 67.2071 30.8019 67.8867 30.9768 68.5312L30.992 68.5875L30.9378 68.609C29.0529 69.349 27.2707 70.0313 25.6513 70.6246C24.8412 70.92 24.0727 71.1949 23.3476 71.4302C22.9827 71.5432 22.6368 71.6622 22.279 71.722C21.9306 71.7656 21.5953 71.8135 21.2738 71.8414C20.6315 71.9005 20.0437 71.8973 19.5379 71.8135C19.0327 71.7318 18.6126 71.5545 18.3326 71.3264C18.051 71.1009 17.8989 70.8573 17.8232 70.6877C17.7909 70.6058 17.7652 70.5406 17.7453 70.4895C17.7284 70.4449 17.7209 70.4218 17.7229 70.4211Z" fill="#1F2A31"/>
<path id="path584" d="M17.7041 54.6525C17.7031 54.6395 17.9496 54.6062 18.3461 54.6547C18.7412 54.7014 19.2833 54.8532 19.8101 55.1654C20.3358 55.4795 20.728 55.8838 20.9575 56.2085C21.1892 56.534 21.2775 56.7664 21.2656 56.7717C21.2452 56.7828 21.1284 56.5679 20.8837 56.2651C20.6407 55.9621 20.2519 55.5829 19.7429 55.2784C19.2327 54.9763 18.714 54.8156 18.3316 54.7464C17.9488 54.6759 17.7041 54.6756 17.7041 54.6525Z" fill="#1F2A31"/>
<path id="path586" d="M30.0799 65.2264C30.0799 65.2264 32.3883 62.9845 32.7997 62.527C33.211 62.0693 35.6817 61.953 36.051 62.1187C36.4201 62.2847 36.3688 62.794 36.1452 62.8691C35.9214 62.9443 34.5824 62.8556 34.1705 63.0149C33.7583 63.1739 35.2242 63.1262 35.8221 63.5723C36.4203 64.0182 36.0876 64.309 35.8595 64.3271C35.8595 64.3271 36.1806 64.6116 35.9267 64.8843C35.6728 65.1573 35.3873 65.0305 35.3873 65.0305C35.3873 65.0305 35.7915 65.2052 35.6345 65.5391C35.4772 65.873 34.9151 65.7342 34.9151 65.7342C34.9151 65.7342 34.0276 65.403 33.8828 65.4603C33.7383 65.5179 33.2859 66.2433 32.7903 66.6552C32.1647 67.1756 31.3825 67.0404 31.19 67.0204L30.6887 67.4688C30.5258 66.932 30.0799 65.2264 30.0799 65.2264Z" fill="#F9AC8A"/>
<path id="path588" d="M34.7812 60.7853L34.7231 61.3251L34.1348 61.2618L34.1931 60.7217L34.7812 60.7853Z" fill="white"/>
<path id="path590" d="M22.0792 84.5526H4.33627V71.1789H20.857C21.4869 71.1789 21.9975 71.4401 21.9975 71.7619L22.0792 84.5526Z" fill="#1E3565"/>
<path id="path594" d="M14.6254 84.5526H4.33627V71.1789L14.5836 71.2057L14.6254 84.5526Z" fill="#172E5C"/>
<path id="path596" d="M20.1962 71.1987C20.1962 71.2338 16.8213 71.2625 12.6591 71.2625C8.49549 71.2625 5.12131 71.2338 5.12131 71.1987C5.12131 71.1635 8.49549 71.1351 12.6591 71.1351C16.8213 71.1351 20.1962 71.1635 20.1962 71.1987Z" fill="#1F2A31"/>
<path id="path598" d="M21.9883 89.2731C21.9531 89.2731 21.9246 85.9676 21.9246 81.891C21.9246 77.8132 21.9531 74.5085 21.9883 74.5085C22.0235 74.5085 22.052 77.8132 22.052 81.891C22.052 85.9676 22.0235 89.2731 21.9883 89.2731Z" fill="#1F2A31"/>
</g>
<defs>
<clipPath id="clip0_31_6859">
<rect width="104" height="84" fill="white"/>
</clipPath>
</defs>
</svg>
