<svg width="41" height="41" viewBox="0 0 41 41" fill="none" xmlns="http://www.w3.org/2000/svg">
<g id="Number">
<path d="M0.957031 20.2715C0.957031 9.22579 9.91134 0.271484 20.957 0.271484C32.0027 0.271484 40.957 9.22579 40.957 20.2715V29.6833C40.957 35.531 36.2165 40.2715 30.3688 40.2715H11.5453C5.69754 40.2715 0.957031 35.531 0.957031 29.6833V20.2715Z" fill="#1E3565"/>
<g id="Group">
<path id="Vector" d="M20.664 31.0399H11.4546C11.052 31.0399 10.7241 30.7369 10.7241 30.3643V9.71413C10.7241 9.34148 11.052 9.03851 11.4546 9.03851H13.6924C13.6739 9.08325 13.6637 9.13311 13.6637 9.18424V10.7726C13.6637 11.2763 14.0734 11.6854 14.5764 11.6854H23.5781C24.0817 11.6854 24.4908 11.2757 24.4908 10.7726V9.18424C24.4908 9.13247 24.4806 9.08325 24.4621 9.03851H27.0559C27.4592 9.03851 27.7865 9.34148 27.7865 9.71413V14.99C27.7865 15.2015 27.9584 15.3735 28.17 15.3735C28.3815 15.3735 28.5535 15.2015 28.5535 14.99V9.71413C28.5535 8.91898 27.8817 8.27148 27.0559 8.27148H11.4546C10.6288 8.27148 9.95703 8.91834 9.95703 9.71413V30.3643C9.95703 31.1594 10.6288 31.8069 11.4546 31.8069H20.664C20.8756 31.8069 21.0475 31.635 21.0475 31.4234C21.0475 31.2118 20.8756 31.0399 20.664 31.0399ZM23.7238 9.18424V10.7726C23.7238 10.8532 23.6586 10.9184 23.5781 10.9184H14.5764C14.4959 10.9184 14.4307 10.8532 14.4307 10.7726V9.18424C14.4307 9.13247 14.4205 9.08325 14.4019 9.03851H23.7532C23.7347 9.08325 23.7244 9.13311 23.7244 9.18424H23.7238Z" fill="white"/>
<path id="Vector_2" d="M18.3438 15.154C18.3438 14.9424 18.1719 14.7705 17.9603 14.7705H12.1687C11.9571 14.7705 11.7852 14.9424 11.7852 15.154C11.7852 15.3656 11.9571 15.5375 12.1687 15.5375H17.961C18.1725 15.5375 18.3445 15.3656 18.3445 15.154H18.3438Z" fill="white"/>
<path id="Vector_3" d="M12.1687 17.5698H15.199C15.4106 17.5698 15.5826 17.3978 15.5826 17.1862C15.5826 16.9747 15.4106 16.8027 15.199 16.8027H12.1687C11.9571 16.8027 11.7852 16.9747 11.7852 17.1862C11.7852 17.3978 11.9571 17.5698 12.1687 17.5698Z" fill="white"/>
<path id="Vector_4" d="M15.199 18.835H12.1687C11.9571 18.835 11.7852 19.0069 11.7852 19.2185C11.7852 19.43 11.9571 19.602 12.1687 19.602H15.199C15.4106 19.602 15.5826 19.43 15.5826 19.2185C15.5826 19.0069 15.4106 18.835 15.199 18.835Z" fill="white"/>
<path id="Vector_5" d="M15.199 20.8672H12.1687C11.9571 20.8672 11.7852 21.0391 11.7852 21.2507C11.7852 21.4623 11.9571 21.6342 12.1687 21.6342H15.199C15.4106 21.6342 15.5826 21.4623 15.5826 21.2507C15.5826 21.0391 15.4106 20.8672 15.199 20.8672Z" fill="white"/>
<path id="Vector_6" d="M26.4425 22.5977C23.5904 22.5977 21.2695 24.9185 21.2695 27.7706C21.2695 29.295 21.9324 30.6667 22.9851 31.6146C23.0075 31.6396 23.033 31.6619 23.0612 31.6805C23.9688 32.466 25.1507 32.9435 26.4425 32.9435C27.7343 32.9435 28.9161 32.4667 29.8237 31.6805C29.8519 31.6619 29.8774 31.6396 29.8998 31.6146C30.9525 30.6674 31.6154 29.295 31.6154 27.7706C31.6154 24.9185 29.2945 22.5977 26.4425 22.5977ZM23.655 31.1794V30.3836C23.655 29.6626 24.2366 29.0752 24.9557 29.0668C24.973 29.0764 25.003 29.0975 25.026 29.1129C25.0593 29.1359 25.0931 29.1595 25.1283 29.1806C25.2881 29.2784 25.4568 29.3602 25.6301 29.4242C26.1491 29.6159 26.6924 29.6376 27.2005 29.4874C27.3661 29.4382 27.5323 29.3698 27.6946 29.2829C27.7764 29.2394 27.8474 29.1864 27.91 29.1397C27.9503 29.1097 27.9989 29.0732 28.0302 29.0566C28.0596 29.0566 28.1759 29.063 28.429 29.171C28.764 29.3136 29.0273 29.5916 29.1513 29.9329C29.2037 30.0768 29.2306 30.2282 29.2306 30.3836V31.1794C28.4706 31.8019 27.4997 32.1765 26.4431 32.1765C25.3865 32.1765 24.4156 31.8019 23.6556 31.1794H23.655ZM29.997 30.3695C29.9957 30.1298 29.9535 29.8946 29.8717 29.6702C29.6748 29.1301 29.2587 28.691 28.7295 28.4654C28.3006 28.2826 27.9893 28.2429 27.7502 28.3414C27.632 28.39 27.5361 28.4615 27.4511 28.5248C27.4076 28.5568 27.3635 28.59 27.3322 28.6073C27.2165 28.6693 27.0989 28.7185 26.9826 28.7524C26.6336 28.8559 26.2577 28.8393 25.8953 28.7051C25.7688 28.6584 25.6448 28.5983 25.5278 28.5267C25.5054 28.5133 25.4843 28.498 25.4639 28.4839C25.3987 28.4385 25.3169 28.3816 25.212 28.3433C25.134 28.3145 25.0529 28.2998 24.9717 28.2998C23.8276 28.2998 22.8956 29.2273 22.8879 30.3701C22.353 29.6408 22.0366 28.7421 22.0366 27.7706C22.0366 25.341 24.0129 23.3647 26.4425 23.3647C28.872 23.3647 30.8484 25.341 30.8484 27.7706C30.8484 28.7421 30.5313 29.6408 29.997 30.3701V30.3695Z" fill="white"/>
<path id="Vector_7" d="M21.7847 23.9621C21.9618 23.8336 22.0353 23.6074 21.9675 23.3996L21.4869 21.9206L22.7448 21.0065C22.9218 20.878 22.9953 20.6524 22.9276 20.444C22.8598 20.2363 22.6681 20.0963 22.4488 20.0963H20.8937L20.413 18.6172C20.3453 18.4095 20.1535 18.2695 19.9349 18.2695C19.7163 18.2695 19.5239 18.4095 19.4568 18.6172L18.9761 20.0963H17.421C17.2024 20.0963 17.01 20.2363 16.9429 20.444C16.8751 20.6518 16.9486 20.878 17.1257 21.0065L18.3836 21.9206L17.9029 23.3996C17.8352 23.6074 17.9087 23.8336 18.0858 23.9621C18.174 24.026 18.2775 24.0586 18.3811 24.0586C18.4846 24.0586 18.5882 24.0267 18.677 23.9621L19.9349 23.0481L21.1928 23.9621C21.3699 24.0906 21.6077 24.0906 21.7841 23.9621H21.7847ZM20.6981 21.9749L20.987 22.8634L20.2309 22.3143C20.1426 22.2504 20.0391 22.2178 19.9356 22.2178C19.832 22.2178 19.7285 22.2497 19.6396 22.3143L18.8835 22.8634L19.1724 21.9749C19.2401 21.7672 19.1666 21.5409 18.9896 21.4124L18.2334 20.8633H19.1679C19.3865 20.8633 19.5789 20.7234 19.646 20.5156L19.9349 19.6265L20.2238 20.5156C20.2916 20.7234 20.4833 20.8633 20.7019 20.8633H21.6364L20.8803 21.4124C20.7032 21.5409 20.6297 21.7672 20.6975 21.9749H20.6981Z" fill="white"/>
<path id="Vector_8" d="M35.9354 20.3347C35.8676 20.1269 35.6759 19.9869 35.4573 19.9869H33.9021L33.4215 18.5079C33.3537 18.3001 33.1613 18.1602 32.9427 18.1602C32.7241 18.1602 32.5317 18.3001 32.4646 18.5079L31.9839 19.9869H30.4288C30.2102 19.9869 30.0178 20.1269 29.9507 20.3347C29.8829 20.5424 29.9565 20.7687 30.1335 20.8971L31.3914 21.8112L30.9108 23.2903C30.843 23.498 30.9165 23.7243 31.0936 23.8527C31.2706 23.9812 31.5078 23.9812 31.6848 23.8527L32.9427 22.9387L34.2006 23.8527C34.2889 23.9167 34.3924 23.9493 34.4959 23.9493C34.5995 23.9493 34.703 23.9173 34.7919 23.8527C34.9689 23.7243 35.0425 23.498 34.9747 23.2903L34.494 21.8112L35.7519 20.8971C35.929 20.7687 36.0025 20.5424 35.9348 20.3347H35.9354ZM33.8881 21.3037C33.711 21.4321 33.6382 21.6584 33.7053 21.8662L33.9942 22.7553L33.238 22.2062C33.1498 22.1416 33.0456 22.1097 32.9421 22.1097C32.8385 22.1097 32.735 22.1416 32.6468 22.2062L31.8906 22.7553L32.1795 21.8668C32.2473 21.6591 32.1738 21.4328 31.9967 21.3043L31.2406 20.7552H32.1751C32.3937 20.7552 32.5861 20.6153 32.6532 20.4075L32.9421 19.5184L33.231 20.4075C33.2988 20.6153 33.4911 20.7546 33.7091 20.7546H34.6436L33.8874 21.3037H33.8881Z" fill="white"/>
<path id="Vector_9" d="M26.9167 16.296C26.8489 16.0882 26.6572 15.9482 26.4386 15.9482C26.22 15.9482 26.0276 16.0876 25.9604 16.296L25.4798 17.775H23.9246C23.706 17.775 23.5136 17.915 23.4465 18.1227C23.3794 18.3305 23.4523 18.5568 23.6293 18.6852L24.8872 19.5993L24.4066 21.0783C24.3388 21.2861 24.4123 21.5124 24.5894 21.6408C24.7664 21.7693 25.0036 21.7693 25.1806 21.6408L26.4386 20.7268L27.6971 21.6408C27.7853 21.7047 27.8889 21.7373 27.9924 21.7373C28.096 21.7373 28.1995 21.7054 28.2884 21.6408C28.4654 21.5124 28.5389 21.2861 28.4712 21.0783L27.9905 19.5993L29.2484 18.6852C29.4255 18.5568 29.499 18.3305 29.4312 18.1227C29.3635 17.915 29.1717 17.775 28.9531 17.775H27.398L26.9173 16.296H26.9167ZM27.3839 19.0911C27.2069 19.2196 27.1333 19.4459 27.2011 19.6536L27.49 20.5427L26.7339 19.9936C26.5568 19.8652 26.319 19.8652 26.1426 19.9936L25.3865 20.5427L25.6754 19.6542C25.7431 19.4459 25.6696 19.2202 25.4926 19.0918L24.7364 18.5427H25.6709C25.8895 18.5427 26.0819 18.4034 26.149 18.195L26.4379 17.3059L26.7268 18.195C26.7946 18.4027 26.9863 18.5427 27.2049 18.5427H28.1394L27.3833 19.0918L27.3839 19.0911Z" fill="white"/>
<path id="Vector_10" d="M26.439 24.3633C25.2834 24.3633 24.3438 25.3035 24.3438 26.4585C24.3438 27.6135 25.284 28.5538 26.439 28.5538C27.594 28.5538 28.5342 27.6135 28.5342 26.4585C28.5342 25.3035 27.594 24.3633 26.439 24.3633ZM26.439 27.7874C25.7065 27.7874 25.1108 27.1917 25.1108 26.4592C25.1108 25.7267 25.7065 25.1309 26.439 25.1309C27.1715 25.1309 27.7672 25.7267 27.7672 26.4592C27.7672 27.1917 27.1715 27.7874 26.439 27.7874Z" fill="white"/>
</g>
</g>
</svg>
