<svg width="41" height="41" viewBox="0 0 41 41" fill="none" xmlns="http://www.w3.org/2000/svg">
<path d="M0.125 20.7285C0.125 9.68282 9.07931 0.728516 20.125 0.728516C31.1707 0.728516 40.125 9.68282 40.125 20.7285V30.1403C40.125 35.988 35.3845 40.7285 29.5368 40.7285H10.7132C4.86551 40.7285 0.125 35.988 0.125 30.1403V20.7285Z" fill="#1E3565"/>
<g clip-path="url(#clip0_448_16287)">
<path d="M17.2518 25.4315H13.0749C12.89 25.4315 12.7401 25.5813 12.7401 25.7662V30.6805C12.7401 30.8654 12.89 31.0153 13.0749 31.0153H17.2518C17.4367 31.0153 17.5866 30.8654 17.5866 30.6805V25.7662C17.5866 25.5813 17.4367 25.4315 17.2518 25.4315ZM16.9171 30.3457H13.4096V26.101H16.9171V30.3457ZM23.4319 20.9333V30.7618C23.4319 30.9466 23.282 31.0965 23.0971 31.0965H18.9202C18.7353 31.0965 18.5854 30.9467 18.5854 30.7618V23.9596C18.5854 23.7748 18.7353 23.6249 18.9202 23.6249C19.105 23.6249 19.255 23.7747 19.255 23.9596V30.427H22.7623V21.2681H21.6524C21.4675 21.2681 21.3176 21.1182 21.3176 20.9333C21.3176 20.7484 21.4675 20.5985 21.6524 20.5985H23.0971C23.282 20.5985 23.4319 20.7484 23.4319 20.9333ZM32.0412 18.6205L27.4875 12.1044C27.4248 12.0148 27.3224 11.9614 27.2131 11.9614C27.1037 11.9614 27.0013 12.0148 26.9387 12.1044L22.3863 18.6206C22.3149 18.7228 22.3062 18.8564 22.3639 18.967C22.4215 19.0777 22.536 19.1471 22.6608 19.1471H24.7899V30.7618C24.7899 30.9466 24.9397 31.0965 25.1246 31.0965H29.303C29.4879 31.0965 29.6378 30.9467 29.6378 30.7618V19.1471H31.7669C31.8916 19.1471 32.0061 19.0777 32.0637 18.967C32.1213 18.8564 32.1127 18.7228 32.0412 18.6205ZM29.3029 18.4775C29.1181 18.4775 28.9682 18.6274 28.9682 18.8123V30.427H25.4594V18.8123C25.4594 18.6274 25.3095 18.4775 25.1246 18.4775H23.303L27.2131 12.8806L31.1245 18.4775H29.3029ZM13.1305 22.7308L13.5983 24.0499C13.638 24.162 13.7343 24.2446 13.8511 24.2669C14.2822 24.349 14.7237 24.3907 15.1633 24.3907C15.6044 24.3907 16.046 24.349 16.4757 24.2668C16.5925 24.2445 16.6886 24.1619 16.7283 24.0499L17.1961 22.7308C17.3016 22.6905 17.4072 22.6466 17.512 22.5992L18.776 23.2019C18.8836 23.2534 19.0103 23.2436 19.1087 23.1764C19.8407 22.6775 20.4649 22.0533 20.964 21.321C21.031 21.2227 21.0408 21.0961 20.9897 20.9887L20.388 19.7243C20.4343 19.6212 20.478 19.5156 20.5186 19.4085L21.8387 18.9408C21.9512 18.901 22.034 18.8043 22.056 18.6869C22.1371 18.2539 22.1783 17.8127 22.1783 17.3757C22.1783 16.9378 22.1371 16.4962 22.056 16.0632C22.034 15.9457 21.9511 15.8489 21.8384 15.8092L20.5185 15.3428C20.478 15.2359 20.4344 15.1301 20.3879 15.0262L20.9897 13.7628C21.0409 13.6553 21.0311 13.5287 20.964 13.4303C20.4638 12.6965 19.8396 12.0718 19.1087 11.5736C19.0102 11.5065 18.8836 11.4967 18.776 11.5481L17.5118 12.1509C17.4087 12.1046 17.3032 12.061 17.1961 12.0204L16.7284 10.7002C16.6885 10.5878 16.5919 10.505 16.4747 10.483C15.6122 10.3211 14.7201 10.3205 13.8521 10.483C13.7348 10.5049 13.6381 10.5877 13.5982 10.7002L13.1305 12.0204C13.0233 12.0611 12.9178 12.1046 12.8148 12.1509L11.5506 11.5481C11.4429 11.4967 11.3161 11.5065 11.2176 11.5739C10.4851 12.0746 9.86097 12.6992 9.36264 13.4303C9.29552 13.5288 9.28577 13.6555 9.33714 13.7631L9.94005 15.0261C9.89247 15.1318 9.8485 15.2376 9.80842 15.3427L8.48955 15.8092C8.37733 15.8489 8.29459 15.9452 8.27233 16.0621C8.19006 16.4932 8.14844 16.9351 8.14844 17.3757C8.14844 17.8154 8.19006 18.2569 8.27228 18.688C8.29459 18.8048 8.37714 18.901 8.48927 18.9408L9.80814 19.4084C9.84916 19.5166 9.89308 19.6224 9.93958 19.725L9.33709 20.9885C9.28581 21.096 9.29556 21.2227 9.36264 21.3211C9.86163 22.0532 10.4859 22.6774 11.218 23.1764C11.3163 23.2436 11.443 23.2533 11.5506 23.202L12.8146 22.5993C12.9194 22.6465 13.025 22.6905 13.1305 22.7308ZM12.6692 21.9268L11.439 22.5134C10.8948 22.1184 10.4206 21.6442 10.0256 21.1L10.6123 19.8698C10.6564 19.7774 10.6557 19.6697 10.6104 19.5778C10.5268 19.4081 10.451 19.2259 10.3851 19.0361C10.3518 18.9399 10.2766 18.8642 10.1808 18.8302L8.89713 18.3751C8.84453 18.0452 8.81795 17.7099 8.81795 17.3757C8.81795 17.0408 8.84458 16.7051 8.89713 16.3752L10.1805 15.9213C10.2765 15.8873 10.3518 15.8115 10.3852 15.7154C10.4474 15.5359 10.5236 15.3523 10.6117 15.1697C10.6558 15.0782 10.656 14.9717 10.6122 14.88L10.0257 13.6513C10.4203 13.1076 10.8946 12.633 11.4393 12.2367L12.6693 12.8232C12.7612 12.8671 12.868 12.8666 12.9595 12.8222C13.1326 12.7382 13.3155 12.6626 13.5032 12.5974C13.5993 12.5641 13.675 12.4888 13.7089 12.3929L14.1639 11.1087C14.8282 11.0044 15.5023 11.0047 16.1628 11.1086L16.6179 12.3929C16.6518 12.4889 16.7275 12.5641 16.8237 12.5974C17.0112 12.6626 17.1941 12.7381 17.3673 12.8222C17.4588 12.8667 17.5657 12.867 17.6576 12.8232L18.8877 12.2366C19.4312 12.6311 19.9054 13.1058 20.3013 13.6514L19.7158 14.8803C19.6722 14.9718 19.6725 15.0782 19.7165 15.1696C19.8014 15.3457 19.8771 15.5294 19.9416 15.7154C19.975 15.8116 20.0504 15.8874 20.1464 15.9213L21.4305 16.375C21.4825 16.7066 21.5088 17.0424 21.5088 17.3757C21.5088 17.7083 21.4825 18.0437 21.4305 18.3752L20.1461 18.8302C20.0502 18.8641 19.975 18.9399 19.9416 19.0361C19.8767 19.2233 19.801 19.4062 19.7169 19.5796C19.6725 19.6711 19.6721 19.7778 19.7158 19.8697L20.3013 21.0999C19.9063 21.6442 19.432 22.1185 18.8878 22.5135L17.6576 21.9269C17.5657 21.883 17.4588 21.8834 17.3673 21.9278C17.1877 22.0151 17.0048 22.0912 16.8237 22.154C16.7276 22.1873 16.6518 22.2625 16.6179 22.3584L16.1627 23.6421C15.5058 23.747 14.8248 23.7473 14.164 23.642L13.7089 22.3584C13.6749 22.2625 13.5992 22.1873 13.5032 22.154C13.3219 22.0911 13.139 22.015 12.9595 21.9278C12.8679 21.8833 12.761 21.8829 12.6692 21.9268ZM19.4799 17.3757C19.4799 14.9956 17.5435 13.0591 15.1634 13.0591C12.7832 13.0591 10.8468 14.9956 10.8468 17.3757C10.8468 19.7558 12.7832 21.6923 15.1634 21.6923C17.5435 21.6923 19.4799 19.7558 19.4799 17.3757ZM11.5163 17.3757C11.5163 15.3647 13.1524 13.7287 15.1634 13.7287C17.1744 13.7287 18.8104 15.3647 18.8104 17.3757C18.8104 19.3867 17.1744 21.0228 15.1634 21.0228C13.1523 21.0228 11.5163 19.3867 11.5163 17.3757ZM18.3889 17.3757C18.3889 15.5971 16.942 14.1502 15.1634 14.1502C13.3848 14.1502 11.9378 15.5971 11.9378 17.3757C11.9378 19.1543 13.3848 20.6013 15.1634 20.6013C16.942 20.6013 18.3889 19.1543 18.3889 17.3757ZM12.6073 17.3757C12.6073 15.9663 13.7539 14.8197 15.1634 14.8197C16.5728 14.8197 17.7194 15.9663 17.7194 17.3757C17.7194 18.7852 16.5728 19.9318 15.1634 19.9318C13.7539 19.9318 12.6073 18.7851 12.6073 17.3757ZM16.1865 18.0173L15.0711 17.6975C14.9275 17.6563 14.8286 17.5251 14.8286 17.3757V15.5583C14.8286 15.3734 14.9785 15.2235 15.1634 15.2235C15.3483 15.2235 15.4982 15.3734 15.4982 15.5583V17.1234L16.371 17.3737C16.5487 17.4247 16.6514 17.6101 16.6005 17.7878C16.5584 17.9347 16.4245 18.0304 16.2789 18.0304C16.2483 18.0304 16.2173 18.0262 16.1865 18.0173Z" fill="white"/>
</g>
<defs>
<clipPath id="clip0_448_16287">
<rect width="24" height="24" fill="white" transform="translate(8.125 8.72852)"/>
</clipPath>
</defs>
</svg>
