<svg width="41" height="41" viewBox="0 0 41 41" fill="none" xmlns="http://www.w3.org/2000/svg">
<rect x="0.878906" y="0.94043" width="40" height="40" rx="20" fill="#1E3565"/>
<g clip-path="url(#clip0_448_16387)">
<g clip-path="url(#clip1_448_16387)">
<path d="M22.2762 18.1102V15.8515C22.2762 15.6101 22.0804 15.4144 21.839 15.4144C21.5975 15.4144 21.4018 15.6101 21.4018 15.8515V18.1102C20.7437 18.3003 20.2609 18.9077 20.2609 19.6262C20.2609 19.9027 20.3326 20.1627 20.458 20.3889L18.7503 22.0966C18.5796 22.2674 18.5796 22.5441 18.7503 22.7149C18.8357 22.8002 18.9475 22.8429 19.0594 22.8429C19.1713 22.8429 19.2832 22.8002 19.3685 22.7149L21.0762 21.0072C21.3024 21.1326 21.5624 21.2043 21.8389 21.2043C22.7091 21.2043 23.417 20.4964 23.417 19.6262C23.4171 18.9077 22.9343 18.3003 22.2762 18.1102ZM21.839 20.33C21.6472 20.33 21.4733 20.2527 21.3462 20.1279C21.3447 20.1263 21.3435 20.1247 21.342 20.1232C21.3405 20.1217 21.3388 20.1205 21.3373 20.119C21.2125 19.992 21.1352 19.818 21.1352 19.6262C21.1352 19.2381 21.4509 18.9224 21.839 18.9224C22.2271 18.9224 22.5428 19.2381 22.5428 19.6262C22.5428 20.0143 22.227 20.33 21.839 20.33ZM33.5635 25.5936L32.3907 24.4223C32.1202 24.1512 31.7508 23.9911 31.3139 23.9533C31.4376 23.683 31.5495 23.4094 31.648 23.1341C32.0496 22.0106 32.2532 20.8303 32.2532 19.6262C32.2532 13.8838 27.5814 9.21191 21.839 9.21191C17.8488 9.21191 14.1999 11.508 12.464 15.085C10.0725 15.1684 8.15234 17.1387 8.15234 19.5502C8.15234 21.9386 10.0343 23.8956 12.3928 24.0152C12.897 25.0992 13.5927 26.0957 14.4361 26.9495C13.121 27.1929 12.5519 28.1047 11.9552 29.0624C11.8855 29.1743 11.8141 29.2889 11.7398 29.4054L9.53545 32.8639C9.40567 33.0676 9.4655 33.3378 9.6691 33.4676C9.8727 33.5973 10.1429 33.5375 10.2727 33.3339L12.4771 29.8754C12.553 29.7561 12.626 29.6391 12.6972 29.5248C13.3828 28.4243 13.7966 27.7601 15.1685 27.7601H23.152C23.8247 27.7601 24.372 28.308 24.372 28.9816C24.372 29.2134 24.3042 29.4386 24.1803 29.6326H18.5805C18.339 29.6326 18.1433 29.8283 18.1433 30.0698C18.1433 30.3112 18.339 30.507 18.5805 30.507H24.3984C24.3995 30.507 24.4005 30.5068 24.4015 30.5068C24.4113 30.5067 24.4209 30.506 24.4307 30.5053C24.4354 30.505 24.4401 30.5049 24.4448 30.5044C24.4546 30.5034 24.4644 30.5016 24.4741 30.5C24.4784 30.4992 24.4829 30.4988 24.4872 30.4979C24.5007 30.495 24.5142 30.4916 24.5275 30.4875C24.5334 30.4857 24.5391 30.4833 24.5449 30.4812C24.5524 30.4786 24.56 30.4761 24.5675 30.473C24.5728 30.4707 24.5778 30.468 24.5831 30.4656C24.5907 30.4621 24.5983 30.4587 24.6057 30.4547C24.6108 30.452 24.6155 30.4488 24.6205 30.4459C24.6277 30.4417 24.635 30.4376 24.642 30.4328C24.6477 30.429 24.6531 30.4246 24.6587 30.4205C24.6644 30.4162 24.6703 30.4122 24.6759 30.4076C24.6869 30.3985 24.6976 30.3889 24.7077 30.3788L29.7178 25.3687C29.9497 25.1369 30.3084 24.9557 30.675 24.8711C30.6817 24.8695 30.6885 24.8683 30.695 24.8665C30.8341 24.8358 30.974 24.8186 31.1082 24.8186H31.1092C31.311 24.8187 31.5897 24.8572 31.7723 25.0403L32.6363 25.9031L25.3495 33.1898C24.8336 33.7057 24.2557 33.9822 23.5321 34.059L14.9397 34.1982C14.7932 34.2005 14.6576 34.2762 14.5786 34.3997L13.2097 36.5389C13.0796 36.7423 13.139 37.0126 13.3424 37.1428C13.4153 37.1895 13.4969 37.2118 13.5776 37.2118C13.7217 37.2118 13.8628 37.1405 13.9462 37.0102L15.1885 35.0685L23.5652 34.9329C23.5776 34.9327 23.5899 34.9319 23.6021 34.9307C24.5327 34.8366 25.3065 34.4693 25.9677 33.8081L33.5637 26.2122C33.6457 26.1301 33.6917 26.0189 33.6917 25.9029C33.6917 25.7868 33.6456 25.6756 33.5635 25.5936ZM12.6627 23.1456C12.6489 23.1458 12.6354 23.1467 12.6216 23.1467C10.6393 23.1467 9.02663 21.5333 9.02663 19.5503C9.02663 17.568 10.6393 15.9554 12.6216 15.9554C14.6046 15.9554 16.218 17.568 16.218 19.5503C16.218 21.514 14.6357 23.1141 12.6792 23.1452C12.6737 23.1452 12.6682 23.1455 12.6627 23.1456ZM15.6501 26.8858C14.6971 26.0722 13.9079 25.0727 13.3401 23.9625C13.8465 23.8803 14.3249 23.7133 14.7596 23.4756C15.4011 24.6542 16.3263 25.656 17.4594 26.391C17.7437 26.5754 18.0385 26.7397 18.3412 26.8857H15.6501V26.8858ZM22.2762 26.7961V26.12C22.2762 25.8785 22.0804 25.6828 21.839 25.6828C21.5975 25.6828 21.4018 25.8785 21.4018 26.12V26.7954C19.7857 26.6958 18.2677 26.0484 17.0813 25.0021L17.5564 24.527C17.7271 24.3563 17.7271 24.0795 17.5564 23.9087C17.3857 23.738 17.1089 23.7381 16.9382 23.9087L16.4612 24.3857C16.0845 23.9621 15.7564 23.4908 15.4859 22.9796C16.4669 22.1589 17.0923 20.9264 17.0923 19.5503C17.0923 18.2011 16.4903 16.9905 15.5417 16.1704C15.802 15.6952 16.1096 15.2579 16.4573 14.8627L16.9382 15.3436C17.0236 15.429 17.1354 15.4717 17.2473 15.4717C17.3592 15.4717 17.4711 15.429 17.5564 15.3436C17.7271 15.1729 17.7271 14.896 17.5564 14.7253L17.0736 14.2425C18.2557 13.1915 19.7673 12.5534 21.4019 12.4564V13.1324C21.4019 13.3738 21.5976 13.5695 21.839 13.5695C22.0805 13.5695 22.2762 13.3738 22.2762 13.1324V12.4563C23.9283 12.556 25.4314 13.2165 26.5975 14.2496L26.1216 14.7253C25.9509 14.896 25.9509 15.1729 26.1216 15.3436C26.207 15.429 26.3188 15.4717 26.4307 15.4717C26.5425 15.4717 26.6545 15.429 26.7398 15.3436L27.2156 14.8678C28.2488 16.0339 28.9093 17.5369 29.009 19.189H28.3327C28.0913 19.189 27.8956 19.3848 27.8956 19.6262C27.8956 19.8677 28.0913 20.0634 28.3327 20.0634H29.0089C28.9092 21.7155 28.2487 23.2186 27.2156 24.3846L26.7397 23.9087C26.569 23.7381 26.2922 23.7381 26.1215 23.9087C25.9508 24.0795 25.9508 24.3563 26.1215 24.527L26.5973 25.0028C25.4314 26.036 23.9283 26.6964 22.2762 26.7961ZM30.8247 22.8398C30.6759 23.2557 30.4941 23.6686 30.2834 24.0696C29.83 24.2051 29.4063 24.4439 29.0995 24.7506L25.2173 28.6328C25.1237 28.076 24.8099 27.5931 24.369 27.2769C27.5766 26.2135 29.897 23.1859 29.897 19.6263C29.897 15.1831 26.2822 11.5683 21.839 11.5683C20.3009 11.5683 18.8055 12.0034 17.5144 12.8264C16.3957 13.5397 15.4736 14.5143 14.8236 15.6632C14.392 15.4179 13.9159 15.2426 13.4104 15.1522C15.0576 12.0559 18.3019 10.0864 21.839 10.0864C27.0993 10.0864 31.3789 14.366 31.3789 19.6263C31.3789 20.7298 31.1924 21.811 30.8247 22.8398ZM14.6701 18.4516L12.6254 21.1754C12.5527 21.2722 12.4431 21.3345 12.3228 21.3475C12.3071 21.3492 12.2914 21.3501 12.2758 21.3501C12.1715 21.3501 12.07 21.3127 11.9903 21.244L10.6385 20.0783C10.4556 19.9206 10.4352 19.6445 10.5929 19.4617C10.7507 19.2788 11.0267 19.2584 11.2095 19.4162L12.207 20.2764L13.9709 17.9268C14.1158 17.7338 14.3898 17.6947 14.5829 17.8396C14.776 17.9846 14.8151 18.2585 14.6701 18.4516Z" fill="white"/>
</g>
</g>
<defs>
<clipPath id="clip0_448_16387">
<rect width="24" height="24" fill="white" transform="translate(8.87891 8.94043)"/>
</clipPath>
<clipPath id="clip1_448_16387">
<rect width="28" height="28" fill="white" transform="translate(6.92188 9.21191)"/>
</clipPath>
</defs>
</svg>
