<svg width="41" height="41" viewBox="0 0 41 41" fill="none" xmlns="http://www.w3.org/2000/svg">
<path d="M0.125 20.7285C0.125 9.68282 9.07931 0.728516 20.125 0.728516C31.1707 0.728516 40.125 9.68282 40.125 20.7285V30.1403C40.125 35.988 35.3845 40.7285 29.5368 40.7285H10.7132C4.86551 40.7285 0.125 35.988 0.125 30.1403V20.7285Z" fill="#1E3565"/>
<g clip-path="url(#clip0_448_16356)">
<path d="M9.33229 18.5763C9.25357 18.5902 9.18227 18.6315 9.13091 18.6927C9.07954 18.754 9.05139 18.8314 9.05139 18.9113V22.5584C9.05139 22.6383 9.07954 22.7157 9.13091 22.7769C9.18227 22.8382 9.25357 22.8794 9.33229 22.8934L11.2458 23.2319C11.4439 23.9385 11.726 24.6187 12.086 25.2581L10.9718 26.8514C10.926 26.9169 10.9047 26.9965 10.9117 27.0761C10.9187 27.1558 10.9535 27.2304 11.01 27.287L13.5888 29.8658C13.6454 29.9223 13.72 29.9571 13.7997 29.9641C13.8793 29.9711 13.9589 29.9498 14.0244 29.904L15.6177 28.7899C16.2571 29.1499 16.9373 29.4319 17.6439 29.63L17.9825 31.5435C17.9964 31.6222 18.0376 31.6935 18.0989 31.7449C18.1601 31.7963 18.2375 31.8245 18.3175 31.8245H21.9645C22.0445 31.8245 22.1219 31.7963 22.1831 31.7449C22.2444 31.6935 22.2856 31.6222 22.2995 31.5435L22.6382 29.63C23.3446 29.4318 24.0248 29.1498 24.6642 28.7898L26.2575 29.904C26.3231 29.9498 26.4026 29.9711 26.4822 29.9641C26.5619 29.9571 26.6365 29.9223 26.693 29.8658L29.2717 27.2869C29.3282 27.2304 29.3631 27.1557 29.3701 27.0761C29.3771 26.9965 29.3558 26.9169 29.31 26.8514L28.1958 25.258C28.5558 24.6186 28.8379 23.9384 29.036 23.2318L30.9495 22.8932C31.0282 22.8793 31.0995 22.8381 31.1508 22.7768C31.2022 22.7156 31.2304 22.6382 31.2304 22.5582V18.9112C31.2304 18.8312 31.2022 18.7539 31.1508 18.6926C31.0995 18.6313 31.0282 18.5901 30.9495 18.5762L29.0359 18.2376C28.8378 17.5311 28.5557 16.8508 28.1957 16.2114L29.31 14.6181C29.3558 14.5526 29.377 14.4731 29.37 14.3934C29.363 14.3138 29.3282 14.2392 29.2717 14.1827L26.693 11.6039C26.6365 11.5474 26.5619 11.5126 26.4822 11.5056C26.4026 11.4986 26.3231 11.5198 26.2575 11.5656L24.6642 12.6798C24.0248 12.3198 23.3446 12.0377 22.638 11.8396L22.2994 9.92611C22.2855 9.84739 22.2443 9.7761 22.183 9.72473C22.1218 9.67337 22.0444 9.64521 21.9644 9.64521H18.3174C18.2374 9.64521 18.16 9.67337 18.0988 9.72473C18.0375 9.7761 17.9963 9.84739 17.9824 9.92611L17.6438 11.8396C16.9372 12.0377 16.2569 12.3197 15.6175 12.6797L14.0246 11.5655C13.9591 11.5197 13.8795 11.4984 13.7999 11.5054C13.7202 11.5124 13.6456 11.5473 13.5891 11.6038L11.0103 14.1827C10.9538 14.2392 10.919 14.3138 10.912 14.3934C10.905 14.4731 10.9262 14.5526 10.972 14.6181L12.0862 16.2114C11.7262 16.8509 11.4442 17.5311 11.2462 18.2376L9.33229 18.5763ZM11.8484 18.6188C12.0497 17.8277 12.364 17.0697 12.7814 16.3682C12.8148 16.3119 12.8313 16.2473 12.8289 16.1819C12.8265 16.1165 12.8053 16.0532 12.7678 15.9996L11.6929 14.4624L13.8683 12.2871L15.4053 13.3619C15.4589 13.3994 15.5222 13.4206 15.5876 13.423C15.6529 13.4254 15.7176 13.4089 15.7738 13.3755C16.4755 12.958 17.2336 12.6437 18.0249 12.4423C18.0883 12.4262 18.1458 12.3921 18.1903 12.3441C18.2348 12.2962 18.2646 12.2364 18.276 12.172L18.6026 10.326H21.6793L22.006 12.172C22.0174 12.2364 22.0472 12.2962 22.0917 12.3441C22.1363 12.3921 22.1937 12.4262 22.2571 12.4423C23.0483 12.6437 23.8063 12.958 24.5078 13.3756C24.5641 13.409 24.6288 13.4254 24.6941 13.423C24.7595 13.4206 24.8228 13.3994 24.8764 13.362L26.4136 12.2871L28.5889 14.4624L27.5139 15.9996C27.4764 16.0533 27.4552 16.1166 27.4528 16.1821C27.4503 16.2475 27.4669 16.3122 27.5003 16.3685C27.9179 17.07 28.2322 17.828 28.4336 18.6192C28.4497 18.6826 28.4838 18.74 28.5318 18.7846C28.5798 18.8291 28.6396 18.8588 28.704 18.8703L30.55 19.1969V22.2733L28.7041 22.5997C28.6397 22.6111 28.5799 22.6409 28.5319 22.6854C28.4839 22.73 28.4498 22.7874 28.4337 22.8508C28.2324 23.642 27.9181 24.4 27.5005 25.1015C27.467 25.1578 27.4505 25.2225 27.4529 25.288C27.4553 25.3534 27.4766 25.4167 27.5141 25.4704L28.589 27.0075L26.4139 29.1828L24.8766 28.1078C24.823 28.0704 24.7597 28.0491 24.6944 28.0467C24.629 28.0443 24.5643 28.0608 24.5081 28.0942C23.8065 28.5116 23.0485 28.826 22.2574 29.0275C22.194 29.0436 22.1366 29.0777 22.092 29.1257C22.0475 29.1736 22.0177 29.2334 22.0063 29.2979L21.6793 31.144H18.6027L18.276 29.298C18.2646 29.2335 18.2349 29.1737 18.1903 29.1258C18.1458 29.0778 18.0883 29.0437 18.0249 29.0276C17.2338 28.8261 16.4758 28.5117 15.7742 28.0941C15.718 28.0606 15.6532 28.0441 15.5878 28.0465C15.5223 28.049 15.459 28.0702 15.4053 28.1078L13.8683 29.1828L11.6929 27.0074L12.7678 25.4702C12.8053 25.4166 12.8265 25.3533 12.8289 25.2879C12.8313 25.2226 12.8148 25.1579 12.7814 25.1017C12.3639 24.4001 12.0496 23.6421 11.8481 22.8509C11.832 22.7875 11.7979 22.73 11.75 22.6855C11.702 22.6409 11.6422 22.6111 11.5777 22.5997L9.73181 22.273V19.1966L11.5779 18.8699C11.6424 18.8585 11.7022 18.8288 11.7502 18.7842C11.7981 18.7397 11.8322 18.6822 11.8484 18.6188ZM20.141 27.07C21.3939 27.07 22.6188 26.6985 23.6606 26.0023C24.7024 25.3062 25.5144 24.3168 25.9939 23.1592C26.4734 22.0016 26.5989 20.7278 26.3544 19.4989C26.11 18.27 25.5066 17.1412 24.6206 16.2552C23.7346 15.3692 22.6058 14.7658 21.3769 14.5214C20.148 14.2769 18.8742 14.4024 17.7166 14.8819C16.559 15.3614 15.5696 16.1733 14.8735 17.2152C14.1774 18.257 13.8058 19.4818 13.8058 20.7348C13.8077 22.4144 14.4757 24.0247 15.6634 25.2124C16.8511 26.4 18.4613 27.0681 20.141 27.07ZM20.141 15.0801C21.2594 15.0801 22.3527 15.4117 23.2826 16.0331C24.2125 16.6544 24.9373 17.5376 25.3653 18.5709C25.7933 19.6041 25.9053 20.7411 25.6871 21.838C25.4689 22.935 24.9303 23.9425 24.1395 24.7334C23.3486 25.5242 22.341 26.0628 21.2441 26.2809C20.1472 26.4991 19.0102 26.3871 17.9769 25.9591C16.9437 25.5311 16.0605 24.8063 15.4392 23.8764C14.8178 22.9465 14.4862 21.8532 14.4862 20.7348C14.4879 19.2356 15.0842 17.7982 16.1443 16.7382C17.2044 15.6781 18.6417 15.0818 20.141 15.0801ZM18.5514 22.245C18.5514 22.1548 18.5156 22.0683 18.4518 22.0045C18.388 21.9407 18.3015 21.9048 18.2112 21.9048C18.121 21.9048 18.0345 21.9407 17.9707 22.0045C17.9069 22.0683 17.871 22.1548 17.871 22.245C17.871 23.1711 18.7102 23.9404 19.8007 24.0746V24.3461C19.8007 24.4363 19.8366 24.5229 19.9004 24.5867C19.9642 24.6505 20.0507 24.6863 20.141 24.6863C20.2312 24.6863 20.3177 24.6505 20.3815 24.5867C20.4453 24.5229 20.4812 24.4363 20.4812 24.3461V24.0747C21.572 23.9405 22.4109 23.1713 22.4109 22.2452C22.4109 21.3191 21.5717 20.5498 20.4812 20.4157V18.0819C21.1946 18.1969 21.7305 18.6654 21.7305 19.2246C21.7305 19.3149 21.7663 19.4014 21.8301 19.4652C21.8939 19.529 21.9805 19.5648 22.0707 19.5648C22.1609 19.5648 22.2475 19.529 22.3113 19.4652C22.3751 19.4014 22.4109 19.3149 22.4109 19.2246C22.4109 18.2986 21.5717 17.5293 20.4812 17.395V17.1237C20.4812 17.0335 20.4453 16.947 20.3815 16.8832C20.3177 16.8194 20.2312 16.7835 20.141 16.7835C20.0507 16.7835 19.9642 16.8194 19.9004 16.8832C19.8366 16.947 19.8007 17.0335 19.8007 17.1237V17.395C18.7099 17.5293 17.871 18.2986 17.871 19.2246C17.871 20.1507 18.7102 20.92 19.8007 21.0542V23.3879C19.0873 23.2727 18.5514 22.8042 18.5514 22.245ZM21.7305 22.245C21.7305 22.8042 21.1946 23.2727 20.4812 23.3877V21.1023C21.1946 21.2173 21.7304 21.6858 21.7304 22.245H21.7305ZM18.5514 19.2246C18.5514 18.6654 19.0873 18.1969 19.8007 18.0819V20.3673C19.0873 20.2522 18.5514 19.7838 18.5514 19.2246ZM8.15329 28.9407C4.19471 23.1832 4.91318 15.4129 9.86155 10.4644C11.2094 9.11653 12.8096 8.04731 14.5708 7.31783C16.3319 6.58835 18.2194 6.21289 20.1257 6.21289C22.0319 6.21289 23.9195 6.58835 25.6806 7.31783C27.4417 8.04731 29.0419 9.11653 30.3898 10.4644C30.4037 10.4783 30.4174 10.4928 30.4313 10.5069L30.2333 8.8507C30.2226 8.76111 30.248 8.67093 30.3038 8.60002C30.3596 8.52911 30.4413 8.48327 30.5309 8.47259C30.6205 8.4619 30.7106 8.48725 30.7815 8.54305C30.8524 8.59885 30.8983 8.68053 30.909 8.77013L31.2235 11.4011C31.2291 11.4482 31.2248 11.496 31.2109 11.5414C31.1969 11.5867 31.1737 11.6287 31.1426 11.6645C31.1114 11.7003 31.0732 11.7293 31.0302 11.7494C30.9872 11.7696 30.9405 11.7805 30.8931 11.7816L28.2653 11.8391H28.2577C28.1675 11.84 28.0806 11.8051 28.0161 11.742C27.9516 11.6789 27.9148 11.5927 27.9139 11.5025C27.9129 11.4122 27.9478 11.3253 28.0109 11.2608C28.0741 11.1964 28.1602 11.1596 28.2504 11.1586L30.0784 11.1186C30.0217 11.0603 29.9655 11.0022 29.9087 10.9454C24.5144 5.55117 15.737 5.55123 10.3427 10.9456C5.6262 15.6621 4.94125 23.068 8.71396 28.5551C8.73927 28.592 8.75709 28.6334 8.76639 28.6771C8.7757 28.7208 8.7763 28.7659 8.76817 28.8098C8.76004 28.8538 8.74334 28.8957 8.71901 28.9331C8.69469 28.9706 8.66322 29.0029 8.62641 29.0283C8.5896 29.0536 8.54816 29.0714 8.50446 29.0807C8.46076 29.09 8.41565 29.0906 8.37172 29.0825C8.32778 29.0743 8.28588 29.0576 8.2484 29.0333C8.21093 29.009 8.17861 28.9775 8.15329 28.9407V28.9407ZM30.3898 30.9926C29.0419 32.3405 27.4417 33.4098 25.6806 34.1392C23.9195 34.8687 22.0319 35.2442 20.1257 35.2442C18.2194 35.2442 16.3319 34.8687 14.5708 34.1392C12.8096 33.4098 11.2094 32.3405 9.86155 30.9926L9.85899 30.99L10.0486 32.5759C10.0542 32.6204 10.0509 32.6655 10.039 32.7088C10.0271 32.752 10.0067 32.7924 9.97907 32.8278C9.95145 32.8631 9.91712 32.8926 9.87805 32.9146C9.83898 32.9366 9.79594 32.9507 9.75141 32.956C9.70688 32.9614 9.66174 32.9578 9.61858 32.9456C9.57543 32.9334 9.5351 32.9128 9.49994 32.885C9.46477 32.8572 9.43545 32.8227 9.41366 32.7835C9.39188 32.7443 9.37806 32.7012 9.373 32.6566L9.05842 30.0256C9.05279 29.9785 9.05709 29.9307 9.07103 29.8854C9.08497 29.84 9.10824 29.7981 9.13936 29.7622C9.17048 29.7264 9.20875 29.6975 9.25171 29.6773C9.29467 29.6572 9.34138 29.6462 9.38882 29.6452L12.0166 29.5877C12.1068 29.5858 12.1942 29.6197 12.2594 29.6821C12.3245 29.7445 12.3623 29.8303 12.3642 29.9205C12.3662 30.0108 12.3323 30.0981 12.2699 30.1633C12.2074 30.2285 12.1217 30.2662 12.0315 30.2682L10.1453 30.3094C10.2108 30.3775 10.2763 30.4455 10.3427 30.5119C15.7371 35.9062 24.5143 35.9062 29.9087 30.5119C34.6373 25.7833 35.314 18.3653 31.5177 12.8736C31.4664 12.7994 31.4466 12.7079 31.4628 12.6191C31.479 12.5303 31.5298 12.4516 31.604 12.4003C31.6783 12.349 31.7698 12.3293 31.8586 12.3455C31.9474 12.3617 32.0261 12.4125 32.0774 12.4867C34.004 15.2821 34.8902 18.6642 34.5819 22.0452C34.2736 25.4261 32.7903 28.5922 30.3898 30.993V30.9926Z" fill="white"/>
</g>
<defs>
<clipPath id="clip0_448_16356">
<rect width="29.0313" height="29.0313" fill="white" transform="translate(5.60938 6.21289)"/>
</clipPath>
</defs>
</svg>
