<svg width="41" height="41" viewBox="0 0 41 41" fill="none" xmlns="http://www.w3.org/2000/svg">
<path d="M0.875 20.7285C0.875 9.68282 9.82931 0.728516 20.875 0.728516C31.9207 0.728516 40.875 9.68282 40.875 20.7285V30.1403C40.875 35.988 36.1345 40.7285 30.2868 40.7285H11.4632C5.61551 40.7285 0.875 35.988 0.875 30.1403V20.7285Z" fill="#1E3565"/>
<g clip-path="url(#clip0_448_16298)">
<g clip-path="url(#clip1_448_16298)">
<path d="M33.322 19.0224L29.4182 10.1239L25.6515 11.6227C25.6988 11.1996 25.6988 10.601 25.4578 10.1689C24.919 9.21018 23.6619 8.84559 22.6552 9.35871C21.6485 9.87183 21.2657 11.0691 21.8045 12.0278C21.9936 12.3654 22.2771 12.64 22.6268 12.8245L18.6002 14.4224C18.5104 14.1523 18.3734 13.8957 18.1985 13.6662C18.2505 13.6392 18.293 13.6077 18.3356 13.5672C18.4348 13.4727 18.4963 13.3466 18.4963 13.2116L18.4773 11.7263H18.7987C18.8743 11.7263 18.9452 11.6947 18.9972 11.6452C19.0539 11.5957 19.0823 11.5237 19.0823 11.4517L19.0256 7.50879L18.4584 7.51779L18.5104 11.1861L10.9345 11.2401L10.8825 7.50879L10.3154 7.51779L10.3674 11.5192C10.3721 11.6677 10.495 11.7803 10.651 11.7848H10.9818C10.9818 11.7983 11.0007 13.2701 11.0007 13.2701C11.0054 13.4321 11.0905 13.5807 11.2275 13.6752L11.0196 13.9903C10.9392 14.1118 10.8305 14.4134 10.8305 14.4134H10.8258L9.99876 17.3525L10.2162 17.9917L9.90896 18.1222C9.6254 18.2437 9.39855 18.4643 9.28985 18.7434C9.18115 19.0224 9.1906 19.3285 9.3182 19.5986L13.5197 28.5376L17.4565 26.8587C17.5983 26.8002 17.6975 26.6742 17.7117 26.5256C17.7259 26.3771 17.655 26.2331 17.5274 26.1521C17.0217 25.8145 16.672 25.4499 16.568 25.1528C16.3034 24.4057 16.724 23.591 17.5132 23.3389C18.2978 23.0869 19.1532 23.4874 19.4178 24.2391C19.5454 24.5947 19.5171 24.9863 19.3422 25.3239C19.2666 25.4679 19.295 25.6389 19.4131 25.7515C19.5265 25.8685 19.7061 25.9045 19.8574 25.837L23.1278 24.4417C23.2838 24.3786 23.4161 24.2706 23.5106 24.1356L24.0069 23.942C24.0636 24.3876 24.2384 24.8107 24.5173 25.1753C24.4653 25.2023 24.4228 25.2383 24.3802 25.2789C24.2762 25.3734 24.2195 25.5039 24.2195 25.6389L24.2432 27.1198H23.9218C23.8462 27.1198 23.7753 27.1513 23.7233 27.2008C23.6666 27.2503 23.6382 27.3223 23.643 27.3943L23.6949 30.7926H24.2621L24.2101 27.6644L31.786 27.6059L31.838 30.7971H32.4051L32.3531 27.3358C32.3484 27.1873 32.2255 27.0703 32.0696 27.0658H31.7387C31.7387 27.0568 31.7435 27.0433 31.7435 27.0343L31.7198 25.5849C31.7198 25.4229 31.6348 25.2698 31.493 25.1798C31.6017 25.0133 31.6867 24.8873 31.7009 24.8603C31.7813 24.7432 31.8427 24.6127 31.8805 24.4732L31.89 24.4417H31.8947L32.7218 21.498L32.4193 20.5888L32.6934 20.4808C33.2889 20.2467 33.5724 19.6031 33.3267 19.0359C33.3267 19.0314 33.322 19.0269 33.322 19.0224ZM13.5244 16.5829L13.4772 16.6594C13.1558 17.1995 12.5745 17.4381 12.5697 17.4381L12.3618 17.5191C12.3618 17.5191 12.6879 19.396 12.7777 19.9406C12.8297 20.2647 12.7682 20.5978 12.5981 20.8813C12.4752 21.0479 12.2767 21.1469 12.0641 21.1469C11.9175 21.1424 11.8561 21.0704 11.8325 21.0299L10.9109 18.2888L10.736 17.7711L10.5895 17.339L11.3882 14.5079C11.4119 14.4269 11.4497 14.3504 11.4969 14.2783C11.4969 14.2783 11.6434 14.0533 11.8088 13.8102L17.5558 13.7652C17.8015 14.0128 17.9811 14.3143 18.0804 14.6429L13.5244 16.5829ZM17.8251 13.2296H17.8157V13.2206L11.686 13.2656C11.6434 13.2701 11.6056 13.2566 11.5725 13.2341V13.1801L11.5536 11.8208C11.5867 11.8028 11.6245 11.7893 11.6623 11.7893L17.8015 11.7443C17.8441 11.7398 17.8819 11.7533 17.9149 11.7758L17.9386 13.1981C17.9055 13.2161 17.863 13.2296 17.8251 13.2296ZM22.8962 23.9465L19.9991 25.1843C20.278 24.1266 19.6069 23.0553 18.4963 22.7898C17.3856 22.5242 16.2608 23.1634 15.982 24.2211C15.8827 24.5857 15.9016 24.9728 16.0245 25.3284C16.1852 25.774 16.6153 26.1701 17.0075 26.4581L13.7985 27.8264L9.82862 19.378C9.76245 19.2385 9.75773 19.0809 9.81917 18.9369C9.87588 18.7929 9.98931 18.6803 10.1358 18.6173L10.3863 18.5093L11.3126 21.2594C11.4544 21.516 11.7285 21.6825 12.0357 21.687C12.0357 21.687 12.773 21.7005 13.0754 21.1649V21.1559C13.3117 20.7598 13.4015 20.3007 13.3259 19.8506C13.255 19.4185 13.0613 18.2888 12.9809 17.8341C13.359 17.6361 13.6804 17.348 13.9167 17.006L18.7137 14.958C18.7137 14.958 18.846 14.886 18.95 14.9085C19.0114 14.931 19.0681 14.9985 19.0965 15.057L20.5805 18.2888C20.6419 18.4373 20.7979 18.5273 20.9633 18.5183C21.1287 18.5093 21.2705 18.4013 21.3224 18.2527C21.4501 17.8432 21.762 17.5146 22.1779 17.3525C22.9151 17.0375 23.7847 17.348 24.1156 18.0502C24.4228 18.6983 24.1723 19.459 23.5295 19.8236C23.1184 20.0442 22.4 19.9901 22.1117 19.9586C21.9605 19.9406 21.8092 20.0036 21.7147 20.1207C21.7147 20.1252 21.5777 20.2737 21.6675 20.5303L23.0711 23.5099C23.1231 23.6225 23.1042 23.7575 23.0238 23.852C22.9955 23.8925 22.9482 23.9285 22.8962 23.9465ZM31.1527 25.6614L31.1763 27.0207C31.1432 27.0433 31.1054 27.0568 31.0629 27.0523L24.9237 27.0973C24.8812 27.1018 24.8434 27.0883 24.8103 27.0658L24.7867 25.6659L31.1527 25.6614ZM31.3323 24.3336C31.3087 24.4147 31.2708 24.4912 31.2236 24.5632V24.5722C31.2236 24.5722 31.0818 24.7927 30.9164 25.0358L30.8597 25.1213H25.212L25.1648 25.0763C24.8008 24.7072 24.5834 24.2256 24.5551 23.717L28.6479 22.0921C28.5581 22.2452 28.473 22.4072 28.3927 22.5692L28.9078 22.7988C29.0118 22.5872 29.1252 22.3802 29.2434 22.1821C29.3615 21.9841 29.5222 21.8131 29.7065 21.669C29.8436 21.561 29.9901 21.4755 30.1508 21.4035L30.3587 21.3224L30.3256 21.1109C30.3209 21.1064 30.3067 21.0074 30.2784 20.8588C30.1933 20.3727 30.0137 19.3195 29.9428 18.9054C29.8908 18.5813 29.9523 18.2482 30.1224 17.9647C30.2453 17.7981 30.4438 17.6946 30.6565 17.6946C30.803 17.6991 30.8644 17.7711 30.888 17.8161L31.7198 20.2827L31.8947 20.8003L32.131 21.507L31.3323 24.3336ZM32.8021 19.6706C32.7407 19.8101 32.6225 19.9226 32.476 19.9811L32.2444 20.0757L31.4032 17.5821C31.2614 17.3255 30.9873 17.1635 30.6848 17.1545C29.957 17.1725 29.6404 17.6811 29.6404 17.6811C29.404 18.0772 29.3142 18.5363 29.3899 18.9864C29.4608 19.423 29.6545 20.5483 29.7349 21.0029C29.6262 21.0614 29.5222 21.1289 29.423 21.2009L23.6571 23.4964C23.643 23.4244 22.3291 20.6068 22.3291 20.6068C22.797 20.6383 23.3358 20.6158 23.7375 20.4132L23.9171 20.3097C24.1345 20.1702 24.3235 19.9946 24.47 19.7876L24.5315 19.6976C24.6402 19.5265 24.7205 19.342 24.7725 19.1484C24.7772 19.1394 24.7772 19.1304 24.7772 19.1214H24.7819C24.8339 18.9459 24.8576 18.7659 24.8576 18.5813C24.8576 18.3833 24.8245 18.1807 24.763 17.9917C24.4228 16.9519 23.2601 16.3758 22.1684 16.6999C21.6438 16.8574 21.2043 17.2085 20.9491 17.6766L20.6135 16.9609C20.5048 16.7044 19.7817 15.192 19.6211 14.841C19.5833 14.7734 19.5407 14.7059 19.4887 14.6474L23.2271 13.1801C23.383 13.1171 23.4775 12.9685 23.4681 12.811C23.4634 12.6535 23.3499 12.5184 23.194 12.4734C22.4 12.2439 21.951 11.4472 22.192 10.6865C22.2157 10.6145 22.244 10.547 22.2771 10.4795C22.4614 10.1104 22.8017 9.83132 23.2176 9.7233C23.8982 9.53875 24.6213 9.82682 24.9568 10.421C25.1789 10.817 25.1033 11.4967 25.0608 11.7713C25.0419 11.9198 25.1033 12.0638 25.2262 12.1539C25.3491 12.2439 25.5098 12.2664 25.6515 12.2079L29.111 10.8305L32.7974 19.2295C32.8635 19.369 32.8635 19.531 32.8021 19.6706Z" fill="white"/>
<path d="M15.5586 28.6595L15.0547 28.9072L15.7092 30.1151L16.2132 29.8674L15.5586 28.6595Z" fill="white"/>
<path d="M11.6194 28.6808L10.9648 29.8887L11.4688 30.1364L12.1233 28.9285L11.6194 28.6808Z" fill="white"/>
<path d="M13.3122 29.4546L13.2773 30.8135L13.8443 30.8267L13.8792 29.4678L13.3122 29.4546Z" fill="white"/>
</g>
</g>
<defs>
<clipPath id="clip0_448_16298">
<rect width="21" height="20" fill="white" transform="translate(10.375 10.7285)"/>
</clipPath>
<clipPath id="clip1_448_16298">
<rect width="24.5" height="23.3333" fill="white" transform="translate(9.0625 7.50879)"/>
</clipPath>
</defs>
</svg>
